<svg width="349" height="682" viewBox="0 0 349 682" fill="none" xmlns="http://www.w3.org/2000/svg">
<path d="M10.7497 157.596C70.3255 162.822 91.3851 171.075 151.126 147.775C192.751 131.541 247.519 94.0932 273.21 55.346C284.821 37.8337 291.946 6.47664 261.271 3.16203C243.537 1.24578 221.551 16.6112 217.56 34.1643C212.767 55.2435 228.311 81.304 238.164 97.1316C253.452 121.691 272.783 143.524 288.807 167.609C302.528 188.232 319.457 215.564 326.549 239.819C336.846 275.035 331.761 309.437 315.477 341.684C297.986 376.32 268.394 405.77 230.846 417.552C185.797 431.689 140.949 418.941 100.675 397.237C77.0409 384.501 60.168 372.409 39.9226 355.067C27.9991 344.853 13.1381 331.927 6.32077 316.843C-15.599 268.346 77.051 237.592 107.03 232.117C188.689 217.201 373.573 254.841 342.917 374.419C329.034 428.568 280.872 477.106 236.816 508.441C214.411 524.377 189.309 536.612 161.91 540.984C131.717 545.801 89.3505 543.334 63.0299 525.483C26.3302 500.592 62.9392 460.493 89.3144 447.111C128.215 427.373 194.44 420.715 227.862 455.679C260.383 489.702 236.152 551.149 222.085 587.295C209.343 620.035 193.434 650.564 173.656 679.242" stroke="#DDCFBB" stroke-width="5" stroke-linecap="round"/>
</svg>
