<svg width="545" height="298" viewBox="0 0 545 298" fill="none" xmlns="http://www.w3.org/2000/svg">
<path d="M3 129.354C11.9127 134.661 26.1635 143.317 33.5066 145.821C73.5539 159.479 107.697 165.214 150.783 154.899C195.327 144.236 238.61 117.662 270.592 85.2305C277.619 78.1051 300.673 52.2568 288.221 36.2511C285.731 33.0512 262.058 25.5254 257.608 25.273C247.029 24.6727 248.808 32.1152 251.169 39.7346C263.729 80.266 290.325 115.388 308.066 153.527C323.367 186.422 330.494 221.393 306.06 252.225C285.189 278.561 245.443 299.756 211.057 293.604C172.085 286.631 148.13 247.599 150.572 209.685C153.302 167.288 185.342 137.514 225.941 130.938C274.721 123.036 322.227 141.013 369.079 150.783C400.154 157.263 438.898 164.162 464.504 139.488C479.609 124.932 489.291 98.502 485.299 77.6302C482.416 62.554 470.735 51.1148 458.487 43.0069C457.096 42.0856 452.73 40.0926 453.737 41.4235C455.923 44.3125 463.568 49.0591 465.56 50.0793C483.206 59.1174 506.193 65.0821 525.728 58.5241C548.073 51.0232 541.426 20.6064 538.818 3" stroke="#DDCFBB" stroke-width="5" stroke-linecap="round"/>
</svg>
