<svg width="301" height="243" viewBox="0 0 301 243" fill="none" xmlns="http://www.w3.org/2000/svg">
<path d="M1.5752 27.5739C2.77077 38.334 27.0816 46.945 34.2831 49.9431C84.7228 70.9416 140.949 79.545 195.379 80.5832C232.989 81.3005 280.997 70.4069 297.074 30.7695C306.262 8.11476 279.617 0.625757 262.674 1.63316C227.406 3.7302 196.778 30.2463 176.205 57.0861C155.508 84.0889 146.932 118.207 142.369 151.45C139.176 174.714 135.363 201.405 142.369 224.385C143.974 229.647 147.12 234.126 148.761 239.047" stroke="#EBD4BD" stroke-width="3" stroke-linecap="round"/>
<path d="M116.616 213.82C120.766 214.339 129.567 224.354 132.782 227.355C136.939 231.234 145.327 239.468 151.298 240.795C154.726 241.557 160.603 218.932 160.603 215.512" stroke="#EBD4BD" stroke-width="3" stroke-linecap="round"/>
</svg>
