<svg width="327" height="242" viewBox="0 0 327 242" fill="none" xmlns="http://www.w3.org/2000/svg">
<path d="M73.2688 80.1873C71.778 88.304 70.3562 87.8334 62.3973 87.7137C44.8173 87.4493 29.5429 81.9682 14.9689 72.0635C-2.73157 60.0341 -1.30707 43.2933 14.2521 28.9359C27.1558 17.0288 45.5603 11.8531 62.1584 7.79022C81.9566 2.94399 101.898 0.982554 122.25 1.6974C158.034 2.95425 198.988 10.0931 225.589 36.3429C239.187 49.7607 250.96 67.9844 255.815 86.519C264.044 117.941 210.891 115.218 192.378 112.204C182.377 110.576 162.711 105.164 168.962 91.0588C179.811 66.5794 210.853 57.4044 234.669 53.1877C258.716 48.9301 283.985 49.6173 304.557 64.2982C319.462 74.9347 326.546 92.3634 324.15 110.412C320.727 136.196 302.301 157.381 283.292 173.73C263.425 190.817 241.232 206.313 217.824 218.172C204.874 224.733 192.093 228.381 178.639 232.866" stroke="#DCCCC3" stroke-width="3" stroke-linecap="round"/>
<path d="M183.913 217C183.913 224.126 180.547 226.069 177.222 232.053C176.398 233.536 174.826 234.203 177.461 234.203C180.728 234.203 183.896 234.234 187.138 234.741C193.347 235.711 200.51 239.579 206.492 239.579" stroke="#DCCCC3" stroke-width="3" stroke-linecap="round"/>
</svg>
