<svg width="301" height="243" fill="none" xmlns="http://www.w3.org/2000/svg"><path d="M1.575 27.574c1.196 10.76 25.507 19.371 32.708 22.37 50.44 20.998 106.666 29.601 161.096 30.64 37.61.716 85.618-10.177 101.695-49.815 9.188-22.654-17.457-30.143-34.4-29.136-35.268 2.097-65.896 28.613-86.469 55.453-20.697 27.003-29.273 61.121-33.836 94.364-3.193 23.264-7.006 49.955 0 72.935 1.605 5.262 4.751 9.741 6.392 14.662" stroke="#EBD4BD" stroke-width="3" stroke-linecap="round"/><path d="M116.616 213.82c4.15.519 12.951 10.534 16.166 13.535 4.157 3.879 12.545 12.113 18.516 13.44 3.428.762 9.305-21.863 9.305-25.283" stroke="#EBD4BD" stroke-width="3" stroke-linecap="round"/></svg>