<svg width="139" height="239" viewBox="0 0 139 239" fill="none" xmlns="http://www.w3.org/2000/svg">
<path d="M115.293 2C93.9964 4.12966 71.641 23.8455 56.0194 36.1196C37.7252 50.4937 21.0669 69.6874 9.44735 89.9141C3.4086 100.426 -4.20507 118.87 10.4435 125.279C40.4286 138.397 85.296 134.514 113.674 119.551C119.921 116.257 150.523 87.2452 130.983 83.1898C109.833 78.8002 80.5 88.0625 66.1059 104.11C39.5 127.562 21 197.254 21 232.062" stroke="#EBD4BD" stroke-width="3" stroke-linecap="round"/>
<path d="M9.5 221.562C12.9427 221.562 17.716 227.8 19.3052 230.66C20.3248 232.495 22.2367 239.599 22.2367 235.664C22.2367 229.609 29.441 225.202 34.9733 225.202" stroke="#EBD4BD" stroke-width="3" stroke-linecap="round"/>
</svg>
