<svg width="24" height="25" viewBox="0 0 24 25" fill="none" xmlns="http://www.w3.org/2000/svg">
<path d="M17.25 3.75H6.75C6.35218 3.75 5.97064 3.90804 5.68934 4.18934C5.40804 4.47064 5.25 4.85218 5.25 5.25V21.75C5.25007 21.8838 5.28595 22.0152 5.35393 22.1305C5.42191 22.2458 5.5195 22.3408 5.63659 22.4057C5.75367 22.4706 5.88598 22.5029 6.01978 22.4994C6.15358 22.4958 6.284 22.4566 6.3975 22.3856L12 18.8841L17.6034 22.3856C17.7169 22.4563 17.8472 22.4954 17.9809 22.4988C18.1146 22.5022 18.2467 22.4698 18.3636 22.405C18.4806 22.3402 18.5781 22.2453 18.646 22.1301C18.7139 22.0149 18.7498 21.8837 18.75 21.75V5.25C18.75 4.85218 18.592 4.47064 18.3107 4.18934C18.0294 3.90804 17.6478 3.75 17.25 3.75ZM17.25 5.25V15.8972L12.3966 12.8644C12.2774 12.7899 12.1396 12.7504 11.9991 12.7504C11.8585 12.7504 11.7208 12.7899 11.6016 12.8644L6.75 15.8962V5.25H17.25ZM12.3966 17.3644C12.2774 17.2899 12.1396 17.2504 11.9991 17.2504C11.8585 17.2504 11.7208 17.2899 11.6016 17.3644L6.75 20.3972V17.6653L12 14.3841L17.25 17.6653V20.3972L12.3966 17.3644Z" fill="#9B8477"/>
</svg>
