<svg width="24" height="25" viewBox="0 0 24 25" fill="none" xmlns="http://www.w3.org/2000/svg">
<path d="M15.5302 19.7198C15.5999 19.7895 15.6552 19.8722 15.6929 19.9632C15.7306 20.0543 15.75 20.1519 15.75 20.2504C15.75 20.349 15.7306 20.4465 15.6929 20.5376C15.6552 20.6286 15.5999 20.7114 15.5302 20.781C15.4606 20.8507 15.3778 20.906 15.2868 20.9437C15.1957 20.9814 15.0982 21.0008 14.9996 21.0008C14.9011 21.0008 14.8035 20.9814 14.7124 20.9437C14.6214 20.906 14.5387 20.8507 14.469 20.781L6.96899 13.281C6.89926 13.2114 6.84394 13.1287 6.80619 13.0376C6.76845 12.9466 6.74902 12.849 6.74902 12.7504C6.74902 12.6519 6.76845 12.5543 6.80619 12.4632C6.84394 12.3722 6.89926 12.2894 6.96899 12.2198L14.469 4.71979C14.6097 4.57906 14.8006 4.5 14.9996 4.5C15.1986 4.5 15.3895 4.57906 15.5302 4.71979C15.671 4.86052 15.75 5.05139 15.75 5.25042C15.75 5.44944 15.671 5.64031 15.5302 5.78104L8.55993 12.7504L15.5302 19.7198Z" fill="#544339"/>
</svg>
