<svg width="24" height="25" viewBox="0 0 24 25" fill="none" xmlns="http://www.w3.org/2000/svg">
<path d="M8.46976 5.78021C8.40008 5.71052 8.34481 5.6278 8.30709 5.53675C8.26938 5.44571 8.24997 5.34813 8.24997 5.24958C8.24997 5.15104 8.26938 5.05345 8.30709 4.96241C8.34481 4.87136 8.40008 4.78864 8.46976 4.71896C8.53945 4.64927 8.62217 4.594 8.71322 4.55629C8.80426 4.51858 8.90184 4.49916 9.00039 4.49916C9.09893 4.49916 9.19652 4.51858 9.28756 4.55629C9.37861 4.594 9.46133 4.64927 9.53101 4.71896L17.031 12.219C17.1007 12.2886 17.1561 12.3713 17.1938 12.4624C17.2316 12.5534 17.251 12.651 17.251 12.7496C17.251 12.8481 17.2316 12.9457 17.1938 13.0368C17.1561 13.1278 17.1007 13.2106 17.031 13.2802L9.53101 20.7802C9.39028 20.9209 9.19941 21 9.00039 21C8.80136 21 8.61049 20.9209 8.46976 20.7802C8.32903 20.6395 8.24997 20.4486 8.24997 20.2496C8.24997 20.0506 8.32903 19.8597 8.46976 19.719L15.4401 12.7496L8.46976 5.78021Z" fill="#544339"/>
</svg>
