<svg width="45" height="34" fill="none" xmlns="http://www.w3.org/2000/svg"><path d="M45.003 16.996c.01 3.572-1.15 7.05-3.3 9.902a1.503 1.503 0 0 1-2.493-.138 1.502 1.502 0 0 1 .093-1.666 13.377 13.377 0 0 0 2.7-8.098 13.5 13.5 0 0 0-27 0 1.5 1.5 0 0 1-3 0c-.001-1.513.207-3.02.617-4.477-.205-.023-.411-.023-.617-.023a9 9 0 1 0 0 18h4.5a1.5 1.5 0 0 1 0 3h-4.5a12.001 12.001 0 1 1 1.742-23.872 16.5 16.5 0 0 1 31.258 7.372zm-13.061 7.939l-3.44 3.44V16.997a1.5 1.5 0 0 0-3 0v11.38l-3.438-3.441a1.5 1.5 0 1 0-2.122 2.123l6 6a1.502 1.502 0 0 0 2.122 0l6-6a1.5 1.5 0 1 0-2.122-2.123z" fill="#9B8477"/></svg>