<svg width="24" height="24" viewBox="0 0 24 24" fill="none" xmlns="http://www.w3.org/2000/svg">
<path d="M12.375 2.25C9.88943 2.25273 7.50645 3.24133 5.74889 4.99889C3.99133 6.75645 3.00273 9.13943 3 11.625V19.5C3 19.8978 3.15804 20.2794 3.43934 20.5607C3.72064 20.842 4.10218 21 4.5 21H12.375C14.8614 21 17.246 20.0123 19.0041 18.2541C20.7623 16.496 21.75 14.1114 21.75 11.625C21.75 9.1386 20.7623 6.75403 19.0041 4.99587C17.246 3.23772 14.8614 2.25 12.375 2.25ZM15.375 14.25H9C8.80109 14.25 8.61032 14.171 8.46967 14.0303C8.32902 13.8897 8.25 13.6989 8.25 13.5C8.25 13.3011 8.32902 13.1103 8.46967 12.9697C8.61032 12.829 8.80109 12.75 9 12.75H15.375C15.5739 12.75 15.7647 12.829 15.9053 12.9697C16.046 13.1103 16.125 13.3011 16.125 13.5C16.125 13.6989 16.046 13.8897 15.9053 14.0303C15.7647 14.171 15.5739 14.25 15.375 14.25ZM15.375 11.25H9C8.80109 11.25 8.61032 11.171 8.46967 11.0303C8.32902 10.8897 8.25 10.6989 8.25 10.5C8.25 10.3011 8.32902 10.1103 8.46967 9.96967C8.61032 9.82902 8.80109 9.75 9 9.75H15.375C15.5739 9.75 15.7647 9.82902 15.9053 9.96967C16.046 10.1103 16.125 10.3011 16.125 10.5C16.125 10.6989 16.046 10.8897 15.9053 11.0303C15.7647 11.171 15.5739 11.25 15.375 11.25Z" fill="#B88C73"/>
</svg>
