<svg width="370" height="111" viewBox="0 0 370 111" fill="none" xmlns="http://www.w3.org/2000/svg">
<path d="M338.008 86.7406C334.647 86.7406 331.63 85.5948 328.956 83.3032C326.359 80.9351 324.335 77.6886 322.883 73.5636C321.432 69.3622 320.706 64.5115 320.706 59.0116C320.706 52.5949 321.699 46.9803 323.685 42.1679C325.671 37.279 328.421 33.4595 331.935 30.7096C335.449 27.9596 339.421 26.5846 343.852 26.5846C344.921 26.5846 345.991 26.6991 347.06 26.9283C348.13 27.0811 349.161 27.3866 350.154 27.845C351.376 28.4561 351.987 28.1887 351.987 27.0429V12.3763C351.987 11.0013 351.758 10.0464 351.3 9.51169C350.918 8.97697 350.192 8.67141 349.123 8.59503L346.143 8.25128C345.303 8.0985 344.883 7.64017 344.883 6.87628C344.883 6.1124 345.303 5.65406 346.143 5.50128C348.588 5.04295 350.536 4.50823 351.987 3.89712C353.515 3.28601 354.775 2.6749 355.768 2.0638C356.991 1.29991 357.907 0.917969 358.518 0.917969C359.359 0.917969 359.779 1.52908 359.779 2.75129V74.824C359.779 78.0323 360.581 79.6365 362.185 79.6365C363.178 79.6365 364.095 78.9872 364.935 77.6886C365.775 76.3136 366.196 74.0219 366.196 70.8136C366.196 69.5914 366.692 68.9803 367.685 68.9803C368.602 68.9803 369.06 69.6296 369.06 70.9282C369.06 76.5046 368.105 80.5532 366.196 83.074C364.286 85.5184 362.109 86.7406 359.664 86.7406C357.449 86.7406 355.768 86.015 354.623 84.5636C353.477 83.0358 352.713 81.2407 352.331 79.1782C352.255 78.5671 351.987 78.2615 351.529 78.2615C351.071 78.1851 350.65 78.4525 350.268 79.0636C348.13 82.0427 346.182 84.067 344.425 85.1365C342.668 86.2059 340.529 86.7406 338.008 86.7406ZM340.529 81.4698C342.515 81.4698 344.348 80.8205 346.029 79.5219C347.786 78.1469 349.199 76.3136 350.268 74.0219C351.414 71.7303 351.987 69.1712 351.987 66.3449V40.5637C351.987 37.1262 351.185 34.4144 349.581 32.4283C348.053 30.4422 346.029 29.4491 343.508 29.4491C339.23 29.4491 335.755 31.97 333.081 37.0116C330.484 41.9769 329.185 48.7755 329.185 57.4074C329.185 65.2754 330.178 71.2719 332.164 75.3969C334.227 79.4455 337.015 81.4698 340.529 81.4698Z" fill="#EEE9E4"/>
<path d="M299.484 86.7401C295.589 86.7401 292.075 85.4415 288.943 82.8442C285.887 80.1706 283.443 76.5422 281.609 71.9589C279.776 67.3755 278.859 62.2575 278.859 56.6047C278.859 50.952 279.776 45.8721 281.609 41.3652C283.443 36.8583 285.925 33.268 289.057 30.5944C292.189 27.9208 295.665 26.584 299.484 26.584C303.38 26.584 306.856 27.9208 309.911 30.5944C313.043 33.268 315.526 36.8583 317.359 41.3652C319.193 45.8721 320.109 50.952 320.109 56.6047C320.109 62.2575 319.193 67.3755 317.359 71.9589C315.602 76.5422 313.158 80.1706 310.026 82.8442C306.894 85.4415 303.38 86.7401 299.484 86.7401ZM299.484 83.8755C307.429 83.8755 311.401 74.7852 311.401 56.6047C311.401 38.5006 307.429 29.4486 299.484 29.4486C291.54 29.4486 287.568 38.5006 287.568 56.6047C287.568 74.7852 291.54 83.8755 299.484 83.8755Z" fill="#EEE9E4"/>
<path d="M258.44 86.7401C254.545 86.7401 251.031 85.4415 247.899 82.8442C244.843 80.1706 242.399 76.5422 240.565 71.9589C238.732 67.3755 237.815 62.2575 237.815 56.6047C237.815 50.952 238.732 45.8721 240.565 41.3652C242.399 36.8583 244.881 33.268 248.013 30.5944C251.145 27.9208 254.621 26.584 258.44 26.584C262.336 26.584 265.812 27.9208 268.867 30.5944C271.999 33.268 274.482 36.8583 276.315 41.3652C278.149 45.8721 279.065 50.952 279.065 56.6047C279.065 62.2575 278.149 67.3755 276.315 71.9589C274.558 76.5422 272.114 80.1706 268.982 82.8442C265.85 85.4415 262.336 86.7401 258.44 86.7401ZM258.44 83.8755C266.385 83.8755 270.357 74.7852 270.357 56.6047C270.357 38.5006 266.385 29.4486 258.44 29.4486C250.496 29.4486 246.524 38.5006 246.524 56.6047C246.524 74.7852 250.496 83.8755 258.44 83.8755Z" fill="#EEE9E4"/>
<path d="M215.204 110.342C209.398 110.342 204.815 109.158 201.454 106.789C198.093 104.498 196.412 101.71 196.412 98.4249C196.412 97.0499 196.603 95.7895 196.985 94.6437C197.367 93.5742 198.169 92.3138 199.391 90.8624C200.69 89.4111 202.638 87.5395 205.235 85.2479C206.152 84.4076 206.61 83.6437 206.61 82.9562C206.61 82.1923 206.152 81.6194 205.235 81.2375C202.485 80.0916 200.843 78.6403 200.308 76.8833C199.773 75.05 200.423 73.3694 202.256 71.8417L210.506 64.7375C211.422 63.9736 211.384 63.3243 210.391 62.7896C207.259 61.2618 204.777 58.8938 202.943 55.6854C201.11 52.4771 200.193 49.0396 200.193 45.373C200.193 41.8591 200.957 38.689 202.485 35.8626C204.013 33.0362 206.075 30.7827 208.672 29.1022C211.27 27.4216 214.172 26.5814 217.381 26.5814C219.214 26.5814 220.971 26.8869 222.652 27.498C223.721 27.88 224.37 27.5362 224.6 26.4668C225.287 23.564 226.547 21.3105 228.381 19.7064C230.29 18.0258 232.162 17.1855 233.995 17.1855C235.752 17.1855 237.165 17.7203 238.235 18.7897C239.381 19.7828 239.954 21.0432 239.954 22.571C239.954 23.8696 239.572 24.9008 238.808 25.6647C238.044 26.4286 237.089 26.8105 235.943 26.8105C234.95 26.8105 234.225 26.6196 233.766 26.2376C233.308 25.8557 232.888 25.4737 232.506 25.0918C232.124 24.7098 231.513 24.5189 230.672 24.5189C228.839 24.5189 227.693 25.5119 227.235 27.498C227.006 28.2619 227.006 28.9112 227.235 29.4459C227.54 29.9807 227.961 30.5154 228.495 31.0501C230.329 32.807 231.742 34.9459 232.735 37.4667C233.804 39.9876 234.339 42.7758 234.339 45.8313C234.339 49.498 233.575 52.7827 232.047 55.6854C230.596 58.5882 228.572 60.8799 225.975 62.5604C223.454 64.241 220.589 65.0813 217.381 65.0813C216.006 65.0813 214.822 65.3868 213.829 65.9979C212.836 66.5326 211.843 67.3347 210.85 68.4042L208.902 70.5812C207.909 71.8035 207.603 72.9875 207.985 74.1333C208.443 75.2028 209.513 75.7375 211.193 75.7375H221.047C226.547 75.7375 230.902 77.1125 234.11 79.8625C237.318 82.5361 238.922 86.2409 238.922 90.977C238.922 94.7201 237.853 98.043 235.714 100.946C233.575 103.849 230.711 106.14 227.12 107.821C223.606 109.501 219.634 110.342 215.204 110.342ZM217.266 62.2167C220.016 62.2167 222.193 60.7271 223.797 57.7479C225.402 54.7688 226.204 50.7202 226.204 45.6021C226.204 40.6369 225.363 36.6647 223.683 33.6855C222.079 30.63 219.94 29.1022 217.266 29.1022C214.593 29.1022 212.416 30.63 210.735 33.6855C209.131 36.6647 208.329 40.6369 208.329 45.6021C208.329 50.7202 209.131 54.7688 210.735 57.7479C212.339 60.7271 214.516 62.2167 217.266 62.2167ZM216.579 107.821C219.329 107.821 221.85 107.21 224.141 105.987C226.433 104.765 228.228 103.046 229.527 100.831C230.902 98.6923 231.589 96.2478 231.589 93.4978C231.589 90.0604 230.558 87.4249 228.495 85.5916C226.509 83.6819 223.683 82.727 220.016 82.727H217.381C215.013 82.727 213.218 82.9562 211.995 83.4145C210.85 83.8729 209.742 84.675 208.672 85.8208C206.304 88.3416 204.815 90.3659 204.204 91.8937C203.593 93.4215 203.287 94.9874 203.287 96.5916C203.287 99.9527 204.433 102.664 206.725 104.727C209.093 106.789 212.377 107.821 216.579 107.821Z" fill="#EEE9E4"/>
<path d="M166.558 86.7401C164.801 86.7401 162.929 86.5109 160.943 86.0526C158.957 85.6706 157.353 85.1741 156.131 84.563C155.443 84.181 155.1 83.5317 155.1 82.6151L154.756 69.7818C154.756 68.4832 155.252 67.8339 156.245 67.8339C157.086 67.8339 157.659 68.445 157.964 69.6672C159.263 75.0908 160.829 78.7957 162.662 80.7818C164.572 82.7679 166.863 83.7609 169.537 83.7609C171.752 83.7609 173.586 82.9206 175.037 81.2401C176.488 79.4831 177.214 77.0769 177.214 74.0214C177.214 70.9658 176.374 68.254 174.693 65.886C173.013 63.5179 170.186 60.9207 166.214 58.0943C162.242 55.4207 159.339 52.7471 157.506 50.0735C155.673 47.3235 154.756 44.3443 154.756 41.136C154.756 36.7819 156.284 33.268 159.339 30.5944C162.395 27.9208 166.443 26.584 171.485 26.584C173.013 26.584 174.502 26.775 175.954 27.1569C177.405 27.4624 178.704 27.9972 179.85 28.7611C180.537 29.2194 180.881 29.8305 180.881 30.5944L181.11 43.1985C181.11 44.3444 180.652 44.9173 179.735 44.9173C179.2 44.9173 178.818 44.7645 178.589 44.4589C178.36 44.077 178.169 43.6187 178.016 43.0839C176.488 38.1187 174.961 34.6812 173.433 32.7715C171.905 30.7854 170.034 29.7923 167.818 29.7923C165.832 29.7923 164.19 30.4798 162.891 31.8548C161.593 33.2298 160.943 34.9485 160.943 37.011C160.943 39.6846 161.745 42.0145 163.35 44.0006C164.954 45.9867 167.857 48.4311 172.058 51.3339C175.877 54.0839 178.742 57.0631 180.652 60.2714C182.638 63.4033 183.631 66.8408 183.631 70.5839C183.631 75.4727 182.065 79.4067 178.933 82.3859C175.801 85.2887 171.676 86.7401 166.558 86.7401Z" fill="#EEE9E4"/>
<path d="M144.827 16.3828C143.223 16.3828 141.848 15.8099 140.702 14.664C139.633 13.5182 139.098 12.0668 139.098 10.3099C139.098 8.55294 139.633 7.13975 140.702 6.07031C141.848 4.92448 143.223 4.35156 144.827 4.35156C146.431 4.35156 147.768 4.92448 148.838 6.07031C149.907 7.13975 150.442 8.55294 150.442 10.3099C150.442 12.0668 149.907 13.5182 148.838 14.664C147.768 15.8099 146.431 16.3828 144.827 16.3828ZM135.202 85.7055C134.056 85.7055 133.483 85.2854 133.483 84.4451C133.483 83.7576 133.98 83.2993 134.973 83.0701L136.348 82.8409C138.258 82.5354 139.48 82.077 140.015 81.4659C140.549 80.7784 140.817 79.6326 140.817 78.0284V39.5285C140.817 38.1535 140.588 37.2369 140.129 36.7786C139.747 36.2438 139.022 35.9001 137.952 35.7473L135.546 35.4036C134.553 35.3272 134.056 34.907 134.056 34.1432C134.056 33.532 134.667 33.1119 135.89 32.8827C138.258 32.5008 140.167 31.8897 141.619 31.0494C143.07 30.2091 144.483 29.1779 145.858 27.9557C146.546 27.2682 147.119 26.9244 147.577 26.9244C148.265 26.9244 148.608 27.3828 148.608 28.2994V78.0284C148.608 79.6326 148.838 80.7784 149.296 81.4659C149.754 82.1534 150.633 82.5736 151.931 82.7263L154.796 83.0701C155.636 83.2229 156.056 83.643 156.056 84.3305C156.056 85.2472 155.483 85.7055 154.338 85.7055H135.202Z" fill="#EEE9E4"/>
<path d="M105.023 86.7401C101.356 86.7401 98.0714 85.5178 95.1686 83.0734C92.2658 80.629 89.936 77.1915 88.179 72.7609C86.4985 68.254 85.6582 63.0596 85.6582 57.1776C85.6582 51.1429 86.5367 45.8339 88.2936 41.2506C90.0506 36.6673 92.4568 33.077 95.5123 30.4798C98.5679 27.8826 101.967 26.584 105.71 26.584C110.217 26.584 113.846 28.4555 116.596 32.1986C119.422 35.8652 120.835 41.8617 120.835 50.1881C120.835 52.7089 119.88 53.9693 117.971 53.9693H96.1998C94.6721 53.9693 93.9082 54.8478 93.9082 56.6047C93.9082 64.7019 95.0922 70.7748 97.4603 74.8234C99.8283 78.872 102.846 80.8963 106.512 80.8963C109.415 80.8963 111.783 79.8651 113.616 77.8026C115.45 75.7401 116.939 72.2644 118.085 67.3755C118.314 66.5353 118.811 66.1151 119.575 66.1151C120.491 66.1151 120.835 66.879 120.606 68.4068C119.384 75.2054 117.436 79.9797 114.762 82.7297C112.089 85.4033 108.842 86.7401 105.023 86.7401ZM95.8561 51.1047H107.429C111.096 51.1047 112.929 49.195 112.929 45.3756C112.929 40.4103 112.318 36.5145 111.096 33.6881C109.873 30.8617 108.04 29.4486 105.596 29.4486C102.616 29.4486 100.096 31.1673 98.0332 34.6048C96.0471 38.0423 94.7485 42.9312 94.1374 49.2714C93.9846 50.4936 94.5575 51.1047 95.8561 51.1047Z" fill="#EEE9E4"/>
<path d="M68.9492 78.031V33.2291C68.9492 31.3958 68.0325 30.4791 66.1992 30.4791H63.5638C62.6471 30.4791 62.1888 30.0971 62.1888 29.3333C62.1888 28.5694 62.6471 28.1492 63.5638 28.0728C67.1541 27.6909 68.9492 26.1249 68.9492 23.3749V22.6874C68.9492 18.7152 69.5221 15.0104 70.6679 11.5729C71.8902 8.13539 73.6089 5.34721 75.8242 3.20832C78.1158 1.06944 80.904 0 84.1887 0C87.2443 0 89.8033 0.878468 91.8658 2.63541C93.9283 4.39235 94.9595 6.49304 94.9595 8.93748C94.9595 10.3889 94.5776 11.4965 93.8137 12.2604C93.1262 12.9479 92.1714 13.2916 90.9491 13.2916C89.4214 13.2916 88.3137 12.7951 87.6262 11.802C87.0151 10.809 86.5186 9.70136 86.1367 8.47914C85.7547 7.18053 85.2582 6.0347 84.6471 5.04165C84.1123 4.0486 83.1193 3.55208 81.6679 3.55208C80.1401 3.55208 78.9179 4.43054 78.0013 6.18748C77.161 7.86803 76.7408 11.0764 76.7408 15.8125V25.8958C76.7408 26.8124 77.1992 27.2708 78.1158 27.2708H87.97C89.1158 27.2708 89.6887 27.8055 89.6887 28.8749C89.6887 29.9444 89.1158 30.4791 87.97 30.4791H78.1158C77.1992 30.4791 76.7408 30.9374 76.7408 31.8541V78.031C76.7408 79.6352 76.97 80.7428 77.4283 81.354C77.9631 81.9651 79.0325 82.347 80.6367 82.4998L86.7096 83.0727C87.5498 83.2255 87.97 83.6456 87.97 84.3331C87.97 85.2498 87.3971 85.7081 86.2512 85.7081H62.418C61.2721 85.7081 60.6992 85.288 60.6992 84.4477C60.6992 83.6074 61.1957 83.1491 62.1888 83.0727L65.0534 82.8435C66.6575 82.6908 67.6888 82.2706 68.1471 81.5831C68.6818 80.8192 68.9492 79.6352 68.9492 78.031Z" fill="#EEE9E4"/>
<path d="M52.4892 16.3828C50.8851 16.3828 49.5101 15.8099 48.3642 14.664C47.2948 13.5182 46.7601 12.0668 46.7601 10.3099C46.7601 8.55294 47.2948 7.13975 48.3642 6.07031C49.5101 4.92448 50.8851 4.35156 52.4892 4.35156C54.0934 4.35156 55.4302 4.92448 56.4996 6.07031C57.5691 7.13975 58.1038 8.55294 58.1038 10.3099C58.1038 12.0668 57.5691 13.5182 56.4996 14.664C55.4302 15.8099 54.0934 16.3828 52.4892 16.3828ZM42.8643 85.7055C41.7184 85.7055 41.1455 85.2854 41.1455 84.4451C41.1455 83.7576 41.642 83.2993 42.6351 83.0701L44.0101 82.8409C45.9198 82.5354 47.142 82.077 47.6767 81.4659C48.2115 80.7784 48.4788 79.6326 48.4788 78.0284V39.5285C48.4788 38.1535 48.2497 37.2369 47.7913 36.7786C47.4094 36.2438 46.6837 35.9001 45.6142 35.7473L43.208 35.4036C42.2149 35.3272 41.7184 34.907 41.7184 34.1432C41.7184 33.532 42.3295 33.1119 43.5518 32.8827C45.9198 32.5008 47.8295 31.8897 49.2809 31.0494C50.7323 30.2091 52.1455 29.1779 53.5205 27.9557C54.208 27.2682 54.7809 26.9244 55.2392 26.9244C55.9267 26.9244 56.2705 27.3828 56.2705 28.2994V78.0284C56.2705 79.6326 56.4996 80.7784 56.958 81.4659C57.4163 82.1534 58.2948 82.5736 59.5934 82.7263L62.458 83.0701C63.2982 83.2229 63.7184 83.643 63.7184 84.3305C63.7184 85.2472 63.1455 85.7055 61.9996 85.7055H42.8643Z" fill="#EEE9E4"/>
<path d="M1.71875 85.7049C0.572915 85.7049 0 85.2847 0 84.4445C0 83.757 0.496527 83.2986 1.48958 83.0695L4.12499 82.6111C5.72915 82.3056 6.7604 81.8854 7.21873 81.3507C7.75345 80.816 8.02081 79.7465 8.02081 78.1424V10.7676C8.02081 9.1634 7.75345 8.09396 7.21873 7.55923C6.7604 7.02451 5.72915 6.60437 4.12499 6.29882L1.48958 5.84049C0.496527 5.61132 0 5.15299 0 4.46549C0 3.62521 0.572915 3.20508 1.71875 3.20508H22.6874C23.8333 3.20508 24.4062 3.66341 24.4062 4.58008C24.4062 5.26757 23.986 5.68771 23.1458 5.84049L20.052 6.29882C18.4479 6.52798 17.3784 6.94812 16.8437 7.55923C16.3854 8.17034 16.1562 9.27798 16.1562 10.8821V75.0486C16.1562 77.7986 16.9201 79.7847 18.4479 81.007C20.052 82.2292 22.0381 82.8403 24.4062 82.8403C26.1631 82.8403 27.9583 82.4965 29.7916 81.809C31.7013 81.0452 33.42 79.6702 34.9478 77.684C36.4756 75.6216 37.6214 72.6424 38.3853 68.7466L39.8749 61.0695C40.1041 60.0765 40.677 59.5799 41.5936 59.5799C42.6631 59.5799 43.1214 60.2292 42.9686 61.5278L41.5936 83.0695C41.4409 84.8264 40.486 85.7049 38.7291 85.7049H1.71875Z" fill="#EEE9E4"/>
</svg>
