<svg fill="none" height="111" width="370" xmlns="http://www.w3.org/2000/svg"><g fill="#eee9e4"><path d="M338.008 86.74c-3.361 0-6.378-1.145-9.052-3.437-2.597-2.368-4.621-5.614-6.073-9.74-1.451-4.2-2.177-9.051-2.177-14.551 0-6.417.993-12.032 2.979-16.844 1.986-4.889 4.736-8.708 8.25-11.458 3.514-2.75 7.486-4.125 11.917-4.125 1.069 0 2.139.114 3.208.343 1.07.153 2.101.459 3.094.917 1.222.611 1.833.344 1.833-.802V12.376c0-1.375-.229-2.33-.687-2.864-.382-.535-1.108-.84-2.177-.917l-2.98-.344c-.84-.152-1.26-.61-1.26-1.375 0-.764.42-1.222 1.26-1.375 2.445-.458 4.393-.993 5.844-1.604 1.528-.611 2.788-1.222 3.781-1.833 1.223-.764 2.139-1.146 2.75-1.146.841 0 1.261.611 1.261 1.833v72.073c0 3.208.802 4.813 2.406 4.813.993 0 1.91-.65 2.75-1.948.84-1.375 1.261-3.667 1.261-6.875 0-1.223.496-1.834 1.489-1.834.917 0 1.375.65 1.375 1.948 0 5.577-.955 9.625-2.864 12.146-1.91 2.444-4.087 3.667-6.532 3.667-2.215 0-3.896-.726-5.041-2.177-1.146-1.528-1.91-3.323-2.292-5.386-.076-.61-.344-.916-.802-.916-.458-.077-.879.19-1.261.802-2.138 2.979-4.086 5.003-5.843 6.073-1.757 1.069-3.896 1.604-6.417 1.604zm2.521-5.27c1.986 0 3.819-.65 5.5-1.948 1.757-1.375 3.17-3.208 4.239-5.5 1.146-2.292 1.719-4.85 1.719-7.677V40.564c0-3.438-.802-6.15-2.406-8.136-1.528-1.986-3.552-2.979-6.073-2.979-4.278 0-7.753 2.521-10.427 7.563-2.597 4.965-3.896 11.763-3.896 20.395 0 7.868.993 13.865 2.979 17.99 2.063 4.048 4.851 6.073 8.365 6.073zm-41.045 5.27c-3.895 0-7.409-1.298-10.541-3.896-3.056-2.673-5.5-6.302-7.334-10.885-1.833-4.584-2.75-9.702-2.75-15.354 0-5.653.917-10.733 2.75-15.24 1.834-4.507 4.316-8.097 7.448-10.77s6.608-4.011 10.427-4.011c3.896 0 7.372 1.337 10.427 4.01 3.132 2.674 5.615 6.264 7.448 10.771 1.834 4.507 2.75 9.587 2.75 15.24 0 5.653-.916 10.77-2.75 15.354-1.757 4.583-4.201 8.212-7.333 10.885-3.132 2.598-6.646 3.896-10.542 3.896zm0-2.864c7.945 0 11.917-9.09 11.917-27.271 0-18.104-3.972-27.156-11.917-27.156-7.944 0-11.916 9.052-11.916 27.156 0 18.18 3.972 27.27 11.916 27.27z"/><path d="M258.44 86.74c-3.895 0-7.409-1.298-10.541-3.896-3.056-2.673-5.5-6.302-7.334-10.885-1.833-4.584-2.75-9.702-2.75-15.354 0-5.653.917-10.733 2.75-15.24 1.834-4.507 4.316-8.097 7.448-10.77s6.608-4.011 10.427-4.011c3.896 0 7.372 1.337 10.427 4.01 3.132 2.674 5.615 6.264 7.448 10.771 1.834 4.507 2.75 9.587 2.75 15.24 0 5.653-.916 10.77-2.75 15.354-1.757 4.583-4.201 8.212-7.333 10.885-3.132 2.598-6.646 3.896-10.542 3.896zm0-2.864c7.945 0 11.917-9.09 11.917-27.271 0-18.104-3.972-27.156-11.917-27.156-7.944 0-11.916 9.052-11.916 27.156 0 18.18 3.972 27.27 11.916 27.27z"/><path d="M215.204 110.342c-5.806 0-10.389-1.184-13.75-3.553-3.361-2.291-5.042-5.079-5.042-8.364 0-1.375.191-2.635.573-3.781.382-1.07 1.184-2.33 2.406-3.782 1.299-1.45 3.247-3.322 5.844-5.614.917-.84 1.375-1.604 1.375-2.292 0-.764-.458-1.337-1.375-1.718-2.75-1.146-4.392-2.598-4.927-4.355-.535-1.833.115-3.514 1.948-5.041l8.25-7.104c.916-.764.878-1.414-.115-1.948-3.132-1.528-5.614-3.896-7.448-7.105-1.833-3.208-2.75-6.645-2.75-10.312 0-3.514.764-6.684 2.292-9.51s3.59-5.08 6.187-6.76c2.598-1.681 5.5-2.522 8.709-2.522 1.833 0 3.59.306 5.271.917 1.069.382 1.718.038 1.948-1.031.687-2.903 1.947-5.156 3.781-6.76 1.909-1.681 3.781-2.522 5.614-2.522 1.757 0 3.17.535 4.24 1.605 1.146.993 1.719 2.253 1.719 3.781 0 1.299-.382 2.33-1.146 3.094s-1.719 1.145-2.865 1.145c-.993 0-1.718-.19-2.177-.572a18.906 18.906 0 0 1-1.26-1.146c-.382-.382-.993-.573-1.834-.573-1.833 0-2.979.993-3.437 2.979-.229.764-.229 1.413 0 1.948.305.535.726 1.07 1.26 1.604 1.834 1.757 3.247 3.896 4.24 6.417 1.069 2.52 1.604 5.309 1.604 8.364 0 3.667-.764 6.952-2.292 9.854-1.451 2.903-3.475 5.195-6.072 6.875-2.521 1.681-5.386 2.521-8.594 2.521-1.375 0-2.559.306-3.552.917-.993.535-1.986 1.337-2.979 2.406l-1.948 2.177c-.993 1.223-1.299 2.407-.917 3.552.458 1.07 1.528 1.605 3.208 1.605h9.854c5.5 0 9.855 1.375 13.063 4.125 3.208 2.673 4.812 6.378 4.812 11.114 0 3.743-1.069 7.066-3.208 9.969s-5.003 5.194-8.594 6.875c-3.514 1.68-7.486 2.521-11.916 2.521zm2.062-48.125c2.75 0 4.927-1.49 6.531-4.47 1.605-2.978 2.407-7.027 2.407-12.145 0-4.965-.841-8.937-2.521-11.917-1.604-3.055-3.743-4.583-6.417-4.583-2.673 0-4.85 1.528-6.531 4.583-1.604 2.98-2.406 6.952-2.406 11.917 0 5.118.802 9.167 2.406 12.146 1.604 2.98 3.781 4.469 6.531 4.469zm-.687 45.604c2.75 0 5.271-.611 7.562-1.834 2.292-1.222 4.087-2.941 5.386-5.156 1.375-2.139 2.062-4.583 2.062-7.333 0-3.438-1.031-6.073-3.094-7.906-1.986-1.91-4.812-2.865-8.479-2.865h-2.635c-2.368 0-4.163.23-5.386.687-1.145.459-2.253 1.261-3.323 2.407-2.368 2.52-3.857 4.545-4.468 6.073s-.917 3.093-.917 4.698c0 3.36 1.146 6.072 3.438 8.135 2.368 2.062 5.652 3.094 9.854 3.094zm-50.021-21.08c-1.757 0-3.629-.23-5.615-.688-1.986-.382-3.59-.879-4.812-1.49-.688-.382-1.031-1.031-1.031-1.948l-.344-12.833c0-1.299.496-1.948 1.489-1.948.841 0 1.414.611 1.719 1.833 1.299 5.424 2.865 9.129 4.698 11.115 1.91 1.986 4.201 2.979 6.875 2.979 2.215 0 4.049-.84 5.5-2.52 1.451-1.758 2.177-4.164 2.177-7.22 0-3.055-.84-5.767-2.521-8.135-1.68-2.368-4.507-4.965-8.479-7.792-3.972-2.673-6.875-5.347-8.708-8.02-1.833-2.75-2.75-5.73-2.75-8.938 0-4.354 1.528-7.868 4.583-10.542 3.056-2.673 7.104-4.01 12.146-4.01 1.528 0 3.017.191 4.469.573 1.451.305 2.75.84 3.896 1.604.687.458 1.031 1.07 1.031 1.833l.229 12.604c0 1.146-.458 1.72-1.375 1.72-.535 0-.917-.154-1.146-.46a5.741 5.741 0 0 1-.573-1.374c-1.528-4.965-3.055-8.403-4.583-10.313-1.528-1.986-3.399-2.979-5.615-2.979-1.986 0-3.628.688-4.927 2.063-1.298 1.375-1.948 3.094-1.948 5.156 0 2.674.802 5.003 2.407 6.99 1.604 1.986 4.507 4.43 8.708 7.333 3.819 2.75 6.684 5.73 8.594 8.937 1.986 3.132 2.979 6.57 2.979 10.313 0 4.889-1.566 8.823-4.698 11.802-3.132 2.903-7.257 4.354-12.375 4.354z"/><path d="M144.827 16.383c-1.604 0-2.979-.573-4.125-1.719-1.069-1.146-1.604-2.597-1.604-4.354 0-1.757.535-3.17 1.604-4.24 1.146-1.146 2.521-1.718 4.125-1.718s2.941.572 4.011 1.718c1.069 1.07 1.604 2.483 1.604 4.24 0 1.757-.535 3.208-1.604 4.354-1.07 1.146-2.407 1.719-4.011 1.719zm-9.625 69.322c-1.146 0-1.719-.42-1.719-1.26 0-.687.497-1.146 1.49-1.375l1.375-.23c1.91-.305 3.132-.763 3.667-1.374.534-.688.802-1.833.802-3.438v-38.5c0-1.375-.229-2.291-.688-2.75-.382-.534-1.107-.878-2.177-1.03l-2.406-.344c-.993-.077-1.49-.497-1.49-1.26 0-.612.611-1.032 1.834-1.261 2.368-.382 4.277-.993 5.729-1.834a26.037 26.037 0 0 0 4.239-3.093c.688-.688 1.261-1.032 1.719-1.032.688 0 1.031.459 1.031 1.375v49.73c0 1.604.23 2.75.688 3.437s1.337 1.108 2.635 1.26l2.865.344c.84.153 1.26.573 1.26 1.26 0 .917-.573 1.376-1.718 1.376zm-30.179 1.035c-3.667 0-6.952-1.222-9.854-3.667s-5.233-5.882-6.99-10.312c-1.68-4.507-2.52-9.701-2.52-15.583 0-6.035.878-11.344 2.635-15.927 1.757-4.584 4.163-8.174 7.218-10.771 3.056-2.597 6.455-3.896 10.198-3.896 4.507 0 8.136 1.871 10.886 5.615 2.826 3.666 4.239 9.663 4.239 17.99 0 2.52-.955 3.78-2.864 3.78H96.2c-1.528 0-2.292.879-2.292 2.636 0 8.097 1.184 14.17 3.552 18.218 2.368 4.049 5.386 6.073 9.052 6.073 2.903 0 5.271-1.03 7.104-3.093 1.834-2.063 3.323-5.539 4.469-10.427.229-.84.726-1.26 1.49-1.26.916 0 1.26.763 1.031 2.29-1.222 6.8-3.17 11.574-5.844 14.324-2.673 2.673-5.92 4.01-9.739 4.01zm-9.167-35.635h11.573c3.667 0 5.5-1.91 5.5-5.73 0-4.965-.611-8.86-1.833-11.687-1.223-2.826-3.056-4.24-5.5-4.24-2.98 0-5.5 1.72-7.563 5.157-1.986 3.437-3.284 8.326-3.896 14.666-.152 1.223.42 1.834 1.72 1.834z"/><path d="M68.95 78.031V33.229c0-1.833-.917-2.75-2.75-2.75h-2.636c-.917 0-1.375-.382-1.375-1.146 0-.764.458-1.184 1.375-1.26 3.59-.382 5.385-1.948 5.385-4.698v-.688c0-3.972.573-7.677 1.719-11.114 1.222-3.438 2.94-6.226 5.156-8.365C78.116 1.07 80.904 0 84.19 0c3.055 0 5.614.878 7.677 2.635 2.062 1.757 3.094 3.858 3.094 6.302 0 1.452-.382 2.56-1.146 3.323-.688.688-1.643 1.032-2.865 1.032-1.528 0-2.635-.497-3.323-1.49a14.64 14.64 0 0 1-1.49-3.323c-.381-1.298-.878-2.444-1.489-3.437-.535-.993-1.528-1.49-2.98-1.49-1.527 0-2.75.879-3.666 2.635-.84 1.681-1.26 4.89-1.26 9.625v10.084c0 .916.458 1.375 1.375 1.375h9.854c1.146 0 1.719.535 1.719 1.604 0 1.07-.573 1.604-1.719 1.604h-9.854c-.917 0-1.375.458-1.375 1.375v46.177c0 1.604.229 2.712.687 3.323.535.611 1.605.993 3.209 1.146l6.073.573c.84.153 1.26.573 1.26 1.26 0 .917-.573 1.375-1.719 1.375H62.418c-1.146 0-1.719-.42-1.719-1.26s.497-1.299 1.49-1.375l2.864-.23c1.605-.152 2.636-.572 3.094-1.26.535-.764.802-1.948.802-3.552z"/><path d="M52.49 16.383c-1.605 0-2.98-.573-4.126-1.719-1.07-1.146-1.604-2.597-1.604-4.354 0-1.757.535-3.17 1.604-4.24 1.146-1.146 2.521-1.718 4.125-1.718s2.941.572 4.01 1.718c1.07 1.07 1.605 2.483 1.605 4.24 0 1.757-.535 3.208-1.604 4.354-1.07 1.146-2.407 1.719-4.01 1.719zm-9.626 69.322c-1.146 0-1.718-.42-1.718-1.26 0-.687.496-1.146 1.49-1.375l1.374-.23c1.91-.305 3.132-.763 3.667-1.374.535-.688.802-1.833.802-3.438v-38.5c0-1.375-.23-2.291-.688-2.75-.382-.534-1.107-.878-2.177-1.03l-2.406-.344c-.993-.077-1.49-.497-1.49-1.26 0-.612.611-1.032 1.834-1.261 2.368-.382 4.278-.993 5.729-1.834s2.865-1.871 4.24-3.093c.687-.688 1.26-1.032 1.718-1.032.688 0 1.032.459 1.032 1.375v49.73c0 1.604.229 2.75.687 3.437.458.687 1.337 1.108 2.635 1.26l2.865.344c.84.153 1.26.573 1.26 1.26 0 .917-.573 1.376-1.718 1.376z"/><path d="M1.719 85.705c-1.146 0-1.719-.42-1.719-1.26 0-.688.497-1.146 1.49-1.376l2.635-.458c1.604-.305 2.635-.726 3.094-1.26.534-.535.802-1.605.802-3.209V10.768c0-1.605-.268-2.674-.802-3.209-.459-.534-1.49-.955-3.094-1.26L1.49 5.84C.497 5.611 0 5.153 0 4.465c0-.84.573-1.26 1.719-1.26h20.968c1.146 0 1.72.458 1.72 1.375 0 .688-.421 1.108-1.261 1.26l-3.094.459c-1.604.229-2.674.65-3.208 1.26-.459.611-.688 1.719-.688 3.323V75.05c0 2.75.764 4.736 2.292 5.958 1.604 1.222 3.59 1.833 5.958 1.833 1.757 0 3.552-.344 5.386-1.031 1.91-.764 3.628-2.139 5.156-4.125 1.528-2.062 2.673-5.042 3.437-8.937l1.49-7.678c.23-.993.802-1.49 1.719-1.49 1.07 0 1.527.65 1.375 1.949l-1.375 21.541c-.153 1.757-1.108 2.636-2.865 2.636z"/></g></svg>