<svg width="258" height="297" viewBox="0 0 258 297" fill="none" xmlns="http://www.w3.org/2000/svg">
  <path d="M140.5 150.5C140.5 190.822 134.362 227.261 124.487 253.564C119.547 266.721 113.702 277.264 107.287 284.492C100.87 291.72 94.0116 295.5 87 295.5C79.9884 295.5 73.1297 291.72 66.7133 284.492C60.2985 277.264 54.453 266.721 49.5134 253.564C39.6385 227.261 33.5 190.822 33.5 150.5C33.5 110.178 39.6385 73.7393 49.5134 47.4361C54.453 34.2789 60.2985 23.7356 66.7133 16.5084C73.1297 9.27964 79.9884 5.5 87 5.5C94.0116 5.5 100.87 9.27964 107.287 16.5084C113.702 23.7356 119.547 34.2789 124.487 47.4361C134.362 73.7393 140.5 110.178 140.5 150.5Z" stroke="black" stroke-width="3"/>
  <path d="M184.312 149.312C155.8 177.825 125.693 199.25 100.112 210.866C87.3154 216.677 75.7267 219.999 66.0804 220.573C56.4318 221.148 48.9093 218.97 43.9514 214.012C38.9934 209.055 36.8162 201.532 37.3907 191.884C37.9651 182.237 41.2869 170.648 47.0976 157.852C58.7142 132.27 80.1394 102.164 108.652 73.6518C137.164 45.1395 167.27 23.7144 192.852 12.0978C205.648 6.28708 217.237 2.96521 226.883 2.39084C236.532 1.81635 244.054 3.9936 249.012 8.95153C253.97 13.9095 256.148 21.4319 255.573 31.0805C254.999 40.7269 251.677 52.3156 245.866 65.1118C234.25 90.6936 212.824 120.8 184.312 149.312Z" stroke="black" stroke-width="3"/>
  <path d="M101.378 229.427C66.8066 208.673 38.7244 184.656 21.2549 162.652C12.5165 151.645 6.48541 141.207 3.5906 131.987C0.695098 122.765 0.984565 114.94 4.59328 108.928C8.202 102.916 14.9726 98.9812 24.4729 97.2004C33.9709 95.4201 46.0191 95.8347 59.8421 98.3714C87.4765 103.443 121.877 116.934 156.449 137.687C191.021 158.44 219.103 182.457 236.573 204.461C245.311 215.468 251.342 225.906 254.237 235.126C257.132 244.348 256.843 252.174 253.234 258.185C249.625 264.197 242.855 268.132 233.355 269.913C223.857 271.693 211.808 271.279 197.985 268.742C170.351 263.671 135.95 250.18 101.378 229.427Z" stroke="black" stroke-width="3"/>
</svg>
