<svg width="342" height="75" viewBox="0 0 342 75" fill="none" xmlns="http://www.w3.org/2000/svg">
<g filter="url(#filter0_d_908_22325)">
<g clip-path="url(#clip0_908_22325)">
<rect x="13" y="10" width="316.269" height="49.6394" rx="2.46394" fill="white"/>
<g style="mix-blend-mode:darken" filter="url(#filter1_d_908_22325)">
<rect x="-121.053" y="-167.527" width="634.464" height="415.789" fill="url(#paint0_linear_908_22325)"/>
</g>
<rect x="37.6394" y="34.8196" width="6.96907" height="6.96907" rx="0.615984" transform="rotate(-45 37.6394 34.8196)" fill="black"/>
<path d="M79.8755 43.6648C76.0071 43.6648 73.7156 41.7429 73.6417 38.318L76.4752 37.5788C76.5984 39.9935 77.7072 41.4226 79.9247 41.4226C81.6002 41.4226 82.7583 40.6341 82.7583 39.0079C82.7583 37.7513 82.0684 36.9629 80.7378 36.4454L77.7811 35.2627C75.7114 34.4496 74.2331 32.9959 74.2331 30.4334C74.2331 27.3781 76.4999 25.7273 79.974 25.7273C83.2757 25.7273 85.6164 27.255 85.7396 30.4334L82.9308 31.1233C82.7829 28.8565 81.6495 27.9941 79.9987 27.9695C78.4217 27.9449 77.313 28.6348 77.313 30.1378C77.313 31.4929 78.0768 32.1828 79.432 32.7495L82.1177 33.8337C84.1874 34.6468 85.8628 36.0266 85.8628 38.663C85.8628 41.8661 83.596 43.6648 79.8755 43.6648ZM98.9086 26.0723H101.299V36.6918C101.299 41.398 99.771 43.6648 95.5084 43.6648C91.1226 43.6648 89.4964 41.324 89.4964 36.6918V26.0723H92.5763V37.0368C92.5763 39.9196 93.5619 41.2994 95.7548 41.2994C98.0216 41.2994 98.9086 39.8703 98.9086 37.0368V26.0723ZM105.96 43.3198V26.0723H111.405C115.791 26.0723 117.393 28.3884 117.393 31.1233C117.393 33.9322 115.791 36.2976 111.405 36.2976H108.966V43.3198H105.96ZM108.966 34.154H111.11C113.5 34.154 114.214 32.8727 114.214 31.148C114.214 29.4725 113.5 28.2405 111.11 28.2405H108.966V34.154ZM123.644 41.1269H130.518V43.3198H120.638V26.0723H130.37V28.2652H123.644V33.3162H129.779V35.4845H123.644V41.1269ZM145.713 39.6732C146.082 41.6443 146.255 42.3835 146.6 43.3198H143.323C143.076 42.556 142.929 41.4965 142.682 40.0428C142.165 36.815 141.45 35.928 139.454 35.928H137.311V43.3198H134.305V26.0723H140.489C143.791 26.0723 145.737 27.6492 145.737 30.532C145.737 33.2177 144.013 34.77 141.13 34.77H140.341V34.9424L141.179 34.9917C143.471 35.1149 144.9 35.2874 145.713 39.6732ZM137.311 33.7844H139.849C141.623 33.7844 142.608 32.8234 142.608 30.9755C142.608 29.1029 141.598 28.2405 139.849 28.2405H137.311V33.7844ZM161.466 26.0723C166.419 26.0723 168.858 29.0043 168.858 34.696C168.858 40.437 166.419 43.3198 161.466 43.3198H156.514V26.0723H161.466ZM161.343 41.1516C164.645 41.1516 165.68 38.8355 165.68 34.696C165.68 30.5813 164.645 28.2652 161.343 28.2652H159.52V41.1516H161.343ZM175.858 41.1269H182.732V43.3198H172.852V26.0723H182.585V28.2652H175.858V33.3162H181.993V35.4845H175.858V41.1269ZM191.354 43.6648C187.486 43.6648 185.194 41.7429 185.12 38.318L187.954 37.5788C188.077 39.9935 189.186 41.4226 191.403 41.4226C193.079 41.4226 194.237 40.6341 194.237 39.0079C194.237 37.7513 193.547 36.9629 192.217 36.4454L189.26 35.2627C187.19 34.4496 185.712 32.9959 185.712 30.4334C185.712 27.3781 187.979 25.7273 191.453 25.7273C194.754 25.7273 197.095 27.255 197.218 30.4334L194.409 31.1233C194.262 28.8565 193.128 27.9941 191.477 27.9695C189.9 27.9449 188.792 28.6348 188.792 30.1378C188.792 31.4929 189.556 32.1828 190.911 32.7495L193.596 33.8337C195.666 34.6468 197.342 36.0266 197.342 38.663C197.342 41.8661 195.075 43.6648 191.354 43.6648ZM201.197 26.0723H204.203V43.3198H201.197V26.0723ZM217.935 31.4929C217.787 29.2754 216.777 28.0434 215.027 28.0434C212.415 28.0434 211.405 30.1624 211.405 34.6714C211.405 39.3036 212.489 41.324 215.003 41.324C216.826 41.324 218.304 40.2153 218.304 36.8643V36.3962H214.732V34.3018H221.064V43.3198H218.723V41.6197C218.723 40.5356 218.772 39.4761 218.945 38.2688H218.748C218.354 41.9647 216.949 43.6648 214.116 43.6648C210.272 43.6648 208.227 40.6588 208.227 34.77C208.227 28.8072 210.592 25.7273 214.953 25.7273C218.181 25.7273 220.596 27.2796 220.916 30.8523L217.935 31.4929ZM225.668 43.3198V26.0723H229.585L234.267 36.815C234.735 37.9977 235.253 39.4514 235.597 41.2748H235.77C235.499 39.5746 235.425 38.3919 235.425 37.16V26.0723H237.84V43.3198H233.922L229.241 32.6263C228.797 31.4683 228.23 29.9653 227.885 28.1666H227.713C227.984 29.8667 228.082 31.0741 228.082 32.2814V43.3198H225.668ZM245.734 41.1269H252.608V43.3198H242.728V26.0723H252.46V28.2652H245.734V33.3162H251.869V35.4845H245.734V41.1269ZM267.803 39.6732C268.172 41.6443 268.345 42.3835 268.69 43.3198H265.413C265.166 42.556 265.019 41.4965 264.772 40.0428C264.255 36.815 263.54 35.928 261.544 35.928H259.401V43.3198H256.395V26.0723H262.579C265.881 26.0723 267.828 27.6492 267.828 30.532C267.828 33.2177 266.103 34.77 263.22 34.77H262.431V34.9424L263.269 34.9917C265.561 35.1149 266.99 35.2874 267.803 39.6732ZM259.401 33.7844H261.939C263.713 33.7844 264.698 32.8234 264.698 30.9755C264.698 29.1029 263.688 28.2405 261.939 28.2405H259.401V33.7844Z" fill="black"/>
<rect x="294.774" y="34.8196" width="6.96907" height="6.96907" rx="0.615984" transform="rotate(-45 294.774 34.8196)" fill="black"/>
</g>
<rect x="13.308" y="10.308" width="315.653" height="49.0234" rx="2.15595" stroke="white" stroke-width="0.615984"/>
</g>
<defs>
<filter id="filter0_d_908_22325" x="0.680312" y="0.14425" width="340.908" height="74.2788" filterUnits="userSpaceOnUse" color-interpolation-filters="sRGB">
<feFlood flood-opacity="0" result="BackgroundImageFix"/>
<feColorMatrix in="SourceAlpha" type="matrix" values="0 0 0 0 0 0 0 0 0 0 0 0 0 0 0 0 0 0 127 0" result="hardAlpha"/>
<feOffset dy="2.46394"/>
<feGaussianBlur stdDeviation="6.15984"/>
<feColorMatrix type="matrix" values="0 0 0 0 0.329412 0 0 0 0 0.262745 0 0 0 0 0.223529 0 0 0 0.4 0"/>
<feBlend mode="multiply" in2="BackgroundImageFix" result="effect1_dropShadow_908_22325"/>
<feBlend mode="normal" in="SourceGraphic" in2="effect1_dropShadow_908_22325" result="shape"/>
</filter>
<filter id="filter1_d_908_22325" x="-123.517" y="-167.527" width="639.392" height="420.717" filterUnits="userSpaceOnUse" color-interpolation-filters="sRGB">
<feFlood flood-opacity="0" result="BackgroundImageFix"/>
<feColorMatrix in="SourceAlpha" type="matrix" values="0 0 0 0 0 0 0 0 0 0 0 0 0 0 0 0 0 0 127 0" result="hardAlpha"/>
<feOffset dy="2.46394"/>
<feGaussianBlur stdDeviation="1.23197"/>
<feComposite in2="hardAlpha" operator="out"/>
<feColorMatrix type="matrix" values="0 0 0 0 0 0 0 0 0 0 0 0 0 0 0 0 0 0 0.25 0"/>
<feBlend mode="normal" in2="BackgroundImageFix" result="effect1_dropShadow_908_22325"/>
<feBlend mode="normal" in="SourceGraphic" in2="effect1_dropShadow_908_22325" result="shape"/>
</filter>
<linearGradient id="paint0_linear_908_22325" x1="-115.691" y1="-156.865" x2="561.433" y2="-46.579" gradientUnits="userSpaceOnUse">
<stop stop-color="#E1E6CD"/>
<stop offset="0.07485" stop-color="#E4CAD5"/>
<stop offset="0.144877" stop-color="#D9CAE0"/>
<stop offset="0.210713" stop-color="#CADAE4"/>
<stop offset="0.286725" stop-color="#D6EAD8"/>
<stop offset="0.345196" stop-color="#DCE7C6"/>
<stop offset="0.40625" stop-color="#E9EED8"/>
<stop offset="0.461559" stop-color="#F0E6DB"/>
<stop offset="0.535237" stop-color="#E7D9EE"/>
<stop offset="0.606791" stop-color="#EFE3F2"/>
<stop offset="0.684534" stop-color="#E5E8F4"/>
<stop offset="0.775289" stop-color="#E7F6EE"/>
<stop offset="0.838559" stop-color="#F0F2E2"/>
<stop offset="0.907567" stop-color="#F3E4E1"/>
<stop offset="0.979976" stop-color="#F0E3EE"/>
</linearGradient>
<clipPath id="clip0_908_22325">
<rect x="13" y="10" width="316.269" height="49.6394" rx="2.46394" fill="white"/>
</clipPath>
</defs>
</svg>
