<svg width="554" height="121" viewBox="0 0 554 121" fill="none" xmlns="http://www.w3.org/2000/svg">
<g filter="url(#filter0_d_908_22272)">
<g clip-path="url(#clip0_908_22272)">
<rect x="20.6235" y="16.2" width="513" height="80" rx="4" fill="white"/>
<g style="mix-blend-mode:darken" filter="url(#filter1_d_908_22272)">
<rect x="-197" y="-272" width="1030" height="675" fill="url(#paint0_linear_908_22272)"/>
</g>
<rect x="60.6235" y="56.2" width="11.3137" height="11.3137" rx="1" transform="rotate(-45 60.6235 56.2)" fill="black"/>
<path d="M128.972 70.76C122.692 70.76 118.972 67.64 118.852 62.08L123.452 60.88C123.652 64.8 125.452 67.12 129.052 67.12C131.772 67.12 133.652 65.84 133.652 63.2C133.652 61.16 132.532 59.88 130.372 59.04L125.572 57.12C122.212 55.8 119.812 53.4399 119.812 49.28C119.812 44.32 123.492 41.6399 129.132 41.6399C134.492 41.6399 138.292 44.12 138.492 49.28L133.932 50.3999C133.692 46.72 131.852 45.3199 129.172 45.28C126.612 45.24 124.812 46.36 124.812 48.8C124.812 51 126.052 52.12 128.252 53.04L132.612 54.8C135.972 56.12 138.692 58.36 138.692 62.64C138.692 67.84 135.012 70.76 128.972 70.76ZM159.871 42.1999H163.751V59.44C163.751 67.08 161.271 70.76 154.351 70.76C147.231 70.76 144.591 66.96 144.591 59.44V42.1999H149.591V60C149.591 64.68 151.191 66.92 154.751 66.92C158.431 66.92 159.871 64.6 159.871 60V42.1999ZM171.318 70.2V42.1999H180.158C187.278 42.1999 189.878 45.96 189.878 50.3999C189.878 54.96 187.278 58.8 180.158 58.8H176.198V70.2H171.318ZM176.198 55.32H179.678C183.558 55.32 184.718 53.24 184.718 50.44C184.718 47.7199 183.558 45.7199 179.678 45.7199H176.198V55.32ZM200.026 66.64H211.186V70.2H195.146V42.1999H210.946V45.76H200.026V53.96H209.986V57.48H200.026V66.64ZM235.854 64.28C236.454 67.48 236.734 68.68 237.294 70.2H231.974C231.574 68.96 231.334 67.24 230.934 64.88C230.094 59.64 228.934 58.2 225.694 58.2H222.214V70.2H217.334V42.1999H227.374C232.734 42.1999 235.894 44.7599 235.894 49.4399C235.894 53.8 233.094 56.32 228.414 56.32H227.134V56.6L228.494 56.6799C232.214 56.88 234.534 57.16 235.854 64.28ZM222.214 54.72H226.334C229.214 54.72 230.814 53.16 230.814 50.1599C230.814 47.12 229.174 45.7199 226.334 45.7199H222.214V54.72ZM261.428 42.1999C269.468 42.1999 273.428 46.9599 273.428 56.2C273.428 65.52 269.468 70.2 261.428 70.2H253.388V42.1999H261.428ZM261.228 66.68C266.588 66.68 268.268 62.92 268.268 56.2C268.268 49.52 266.588 45.76 261.228 45.76H258.268V66.68H261.228ZM284.792 66.64H295.952V70.2H279.912V42.1999H295.712V45.76H284.792V53.96H294.752V57.48H284.792V66.64ZM309.949 70.76C303.669 70.76 299.949 67.64 299.829 62.08L304.429 60.88C304.629 64.8 306.429 67.12 310.029 67.12C312.749 67.12 314.629 65.84 314.629 63.2C314.629 61.16 313.509 59.88 311.349 59.04L306.549 57.12C303.189 55.8 300.789 53.4399 300.789 49.28C300.789 44.32 304.469 41.6399 310.109 41.6399C315.469 41.6399 319.269 44.12 319.469 49.28L314.909 50.3999C314.669 46.72 312.829 45.3199 310.149 45.28C307.589 45.24 305.789 46.36 305.789 48.8C305.789 51 307.029 52.12 309.229 53.04L313.589 54.8C316.949 56.12 319.669 58.36 319.669 62.64C319.669 67.84 315.989 70.76 309.949 70.76ZM325.927 42.1999H330.807V70.2H325.927V42.1999ZM353.1 51C352.86 47.3999 351.22 45.4 348.38 45.4C344.14 45.4 342.5 48.8399 342.5 56.16C342.5 63.68 344.26 66.96 348.34 66.96C351.3 66.96 353.7 65.16 353.7 59.72V58.96H347.9V55.56H358.18V70.2H354.38V67.44C354.38 65.68 354.46 63.96 354.74 62H354.42C353.78 68 351.5 70.76 346.9 70.76C340.66 70.76 337.34 65.88 337.34 56.32C337.34 46.6399 341.18 41.6399 348.26 41.6399C353.5 41.6399 357.42 44.16 357.94 49.9599L353.1 51ZM365.654 70.2V42.1999H372.014L379.614 59.64C380.374 61.56 381.214 63.92 381.774 66.88H382.054C381.614 64.12 381.494 62.2 381.494 60.2V42.1999H385.414V70.2H379.054L371.454 52.84C370.734 50.9599 369.814 48.5199 369.254 45.6H368.974C369.414 48.36 369.574 50.32 369.574 52.28V70.2H365.654ZM398.229 66.64H409.389V70.2H393.349V42.1999H409.149V45.76H398.229V53.96H408.189V57.48H398.229V66.64ZM434.057 64.28C434.657 67.48 434.937 68.68 435.497 70.2H430.177C429.777 68.96 429.537 67.24 429.137 64.88C428.297 59.64 427.137 58.2 423.897 58.2H420.417V70.2H415.537V42.1999H425.577C430.937 42.1999 434.097 44.7599 434.097 49.4399C434.097 53.8 431.297 56.32 426.617 56.32H425.337V56.6L426.697 56.6799C430.417 56.88 432.737 57.16 434.057 64.28ZM420.417 54.72H424.537C427.417 54.72 429.017 53.16 429.017 50.1599C429.017 47.12 427.377 45.7199 424.537 45.7199H420.417V54.72Z" fill="black"/>
<rect x="477.624" y="56.2" width="11.3137" height="11.3137" rx="1" transform="rotate(-45 477.624 56.2)" fill="black"/>
</g>
<rect x="21.1235" y="16.7" width="512" height="79" rx="3.5" stroke="white"/>
</g>
<defs>
<filter id="filter0_d_908_22272" x="0.623535" y="0.199951" width="553" height="120" filterUnits="userSpaceOnUse" color-interpolation-filters="sRGB">
<feFlood flood-opacity="0" result="BackgroundImageFix"/>
<feColorMatrix in="SourceAlpha" type="matrix" values="0 0 0 0 0 0 0 0 0 0 0 0 0 0 0 0 0 0 127 0" result="hardAlpha"/>
<feOffset dy="4"/>
<feGaussianBlur stdDeviation="10"/>
<feColorMatrix type="matrix" values="0 0 0 0 0.329412 0 0 0 0 0.262745 0 0 0 0 0.223529 0 0 0 0.4 0"/>
<feBlend mode="multiply" in2="BackgroundImageFix" result="effect1_dropShadow_908_22272"/>
<feBlend mode="normal" in="SourceGraphic" in2="effect1_dropShadow_908_22272" result="shape"/>
</filter>
<filter id="filter1_d_908_22272" x="-201" y="-272" width="1038" height="683" filterUnits="userSpaceOnUse" color-interpolation-filters="sRGB">
<feFlood flood-opacity="0" result="BackgroundImageFix"/>
<feColorMatrix in="SourceAlpha" type="matrix" values="0 0 0 0 0 0 0 0 0 0 0 0 0 0 0 0 0 0 127 0" result="hardAlpha"/>
<feOffset dy="4"/>
<feGaussianBlur stdDeviation="2"/>
<feComposite in2="hardAlpha" operator="out"/>
<feColorMatrix type="matrix" values="0 0 0 0 0 0 0 0 0 0 0 0 0 0 0 0 0 0 0.25 0"/>
<feBlend mode="normal" in2="BackgroundImageFix" result="effect1_dropShadow_908_22272"/>
<feBlend mode="normal" in="SourceGraphic" in2="effect1_dropShadow_908_22272" result="shape"/>
</filter>
<linearGradient id="paint0_linear_908_22272" x1="-188.296" y1="-254.692" x2="910.96" y2="-75.6515" gradientUnits="userSpaceOnUse">
<stop stop-color="#E1E6CD"/>
<stop offset="0.07485" stop-color="#E4CAD5"/>
<stop offset="0.144877" stop-color="#D9CAE0"/>
<stop offset="0.210713" stop-color="#CADAE4"/>
<stop offset="0.286725" stop-color="#D6EAD8"/>
<stop offset="0.345196" stop-color="#DCE7C6"/>
<stop offset="0.40625" stop-color="#E9EED8"/>
<stop offset="0.461559" stop-color="#F0E6DB"/>
<stop offset="0.535237" stop-color="#E7D9EE"/>
<stop offset="0.606791" stop-color="#EFE3F2"/>
<stop offset="0.684534" stop-color="#E5E8F4"/>
<stop offset="0.775289" stop-color="#E7F6EE"/>
<stop offset="0.838559" stop-color="#F0F2E2"/>
<stop offset="0.907567" stop-color="#F3E4E1"/>
<stop offset="0.979976" stop-color="#F0E3EE"/>
</linearGradient>
<clipPath id="clip0_908_22272">
<rect x="20.6235" y="16.2" width="513" height="80" rx="4" fill="white"/>
</clipPath>
</defs>
</svg>
