<svg xmlns="http://www.w3.org/2000/svg" width="524" height="454" fill="none">
  <text xml:space="preserve" fill="#271E29" font-family="Safiro" font-size="14" letter-spacing="0" style="white-space:pre"><tspan x=".138" y="132.65">Connection</tspan></text>
  <path fill="#544339" fill-rule="evenodd" d="M89.462 128.068c6.878-5.78 15.921-9.052 23.745-8.407 4.082.336 7.817 1.736 10.754 4.383 2.936 2.645 5.111 6.569 6.019 12.018 1.255 7.527 3.022 15.845 9.373 20.925 1.643 1.314 3.924 2.956 6.332 3.921 2.402.962 5.044 1.292 7.293-.208a.5.5 0 1 0-.555-.832c-1.846 1.231-4.091 1.023-6.366.111-2.269-.908-4.458-2.476-6.079-3.772-6.014-4.812-7.75-12.74-9.011-20.309-.939-5.634-3.206-9.776-6.336-12.597-3.129-2.819-7.083-4.286-11.342-4.637-8.152-.672-17.475 2.736-24.526 8.686l.174-3.316a.5.5 0 1 0-.999-.052l-.236 4.494a.5.5 0 0 0 .473.525l4.494.237a.5.5 0 0 0 .052-.999l-3.259-.171Z" clip-rule="evenodd"/>
  
  <text xml:space="preserve" fill="#271E29" font-family="Safiro" font-size="14" letter-spacing="0" style="white-space:pre"><tspan x="238.466" y="16.65">Happiness</tspan></text>
  <path fill="#544339" fill-rule="evenodd" d="M271.438 33.395a.5.5 0 0 1 .5.5v4.5a.5.5 0 1 1-1 0v-3.287c-4.092 4.156-7.699 8.355-9.195 12.72-.794 2.315-.988 4.668-.346 7.088.644 2.424 2.138 4.954 4.786 7.603 1.951 1.95 4.724 4.886 6.337 8.022.808 1.57 1.345 3.227 1.317 4.86-.029 1.65-.634 3.24-2.045 4.651a.5.5 0 0 1-.707-.707c1.227-1.228 1.728-2.572 1.752-3.962.024-1.408-.44-2.896-1.206-4.385-1.535-2.983-4.205-5.822-6.155-7.772-2.739-2.74-4.346-5.418-5.045-8.053-.701-2.64-.481-5.197.366-7.67 1.577-4.599 5.339-8.945 9.44-13.108h-3.299a.5.5 0 0 1 0-1h4.5Z" clip-rule="evenodd"/>
  
  <text xml:space="preserve" fill="#271E29" font-family="Safiro" font-size="14" letter-spacing="0" style="white-space:pre"><tspan x="480.077" y="241.65">Safety</tspan></text>
  <path fill="#544339" fill-rule="evenodd" d="M435.386 226.354c-3.699-.366-7.446.216-11.87 1.985-7.807 3.123-17.457 8.509-22.097 15.648a.499.499 0 1 1-.838-.545c4.818-7.412 14.719-12.893 22.564-16.031 4.543-1.818 8.453-2.436 12.339-2.052 3.878.384 7.696 1.764 12.058 3.884 6.31 3.067 12.669 6.126 19.524 6.462l-2.298-2.298a.5.5 0 0 1 .707-.707l3.182 3.182a.499.499 0 0 1 0 .707l-3.182 3.182a.5.5 0 0 1-.707-.707l2.355-2.355c-7.141-.322-13.714-3.502-20.018-6.567-4.317-2.098-8.012-3.421-11.719-3.788Z" clip-rule="evenodd"/>
  
  <text xml:space="preserve" fill="#271E29" font-family="Safiro" font-size="14" letter-spacing="0" style="white-space:pre"><tspan x="468.887" y="417.117">Growth</tspan></text>
  <path fill="#544339" fill-rule="evenodd" d="M421.5 368.75a.5.5 0 0 1 .5-.5c7.755 0 13.179 6.403 16.738 12.504 2.191 3.755 3.034 7.739 3.333 11.784.207 2.789.155 5.64.104 8.467-.022 1.252-.045 2.499-.045 3.734 0 1.884.841 3.273 2.226 4.326 1.404 1.067 3.365 1.783 5.554 2.253 3.809.819 8.153.869 11.08.868l-2.33-2.33a.5.5 0 0 1 .707-.707l3.182 3.182a.5.5 0 0 1 0 .707l-3.182 3.182a.5.5 0 0 1-.707-.707l2.327-2.327c-2.93.001-7.373-.048-11.288-.89-2.25-.484-4.375-1.239-5.949-2.435-1.593-1.212-2.62-2.879-2.62-5.122 0-1.275.023-2.544.046-3.807.051-2.804.101-5.578-.102-8.32-.293-3.956-1.112-7.775-3.199-11.354-3.545-6.078-8.712-12.008-15.875-12.008a.5.5 0 0 1-.5-.5Z" clip-rule="evenodd"/>
  
  <text xml:space="preserve" fill="#271E29" font-family="Safiro" font-size="14" letter-spacing="0" style="white-space:pre"><tspan x="29.198" y="446.927">Security</tspan></text>
  <path fill="#544339" fill-rule="evenodd" d="M114.022 415.511c-8.593-4.186-21.496-4.197-30.454-.863-2.718 1.011-6.774 2.92-10.14 5.455-2.933 2.209-5.237 4.813-5.808 7.637l2.192-2.192a.5.5 0 0 1 .707.707l-3.182 3.182a.5.5 0 0 1-.707 0l-3.182-3.182a.5.5 0 1 1 .707-.707l2.411 2.411c.496-3.374 3.162-6.322 6.26-8.655 3.466-2.61 7.615-4.56 10.394-5.594 9.174-3.413 22.365-3.422 31.24.902 8.873 4.323 17.797 5.112 26.147.937a.5.5 0 0 1 .447.895c-8.696 4.348-17.956 3.489-27.032-.933Z" clip-rule="evenodd"/>
</svg>