<svg width="553" height="120" viewBox="0 0 553 120" fill="none" xmlns="http://www.w3.org/2000/svg">
<g filter="url(#filter0_d_908_22272)">
<g clip-path="url(#clip0_908_22272)">
<rect x="20" y="16" width="513" height="80" rx="4" fill="white"/>
<g style="mix-blend-mode:darken" filter="url(#filter1_d_908_22272)">
<rect x="-197.624" y="-272.2" width="1030" height="675" fill="url(#paint0_linear_908_22272)"/>
</g>
<rect x="60" y="56" width="11.3137" height="11.3137" rx="1" transform="rotate(-45 60 56)" fill="black"/>
<path d="M128.348 70.56C122.068 70.56 118.348 67.44 118.228 61.88L122.828 60.68C123.028 64.6 124.828 66.92 128.428 66.92C131.148 66.92 133.028 65.64 133.028 63C133.028 60.96 131.908 59.68 129.748 58.84L124.948 56.92C121.588 55.6 119.188 53.24 119.188 49.08C119.188 44.12 122.868 41.44 128.508 41.44C133.868 41.44 137.668 43.92 137.868 49.08L133.308 50.2C133.068 46.52 131.228 45.12 128.548 45.08C125.988 45.04 124.188 46.16 124.188 48.6C124.188 50.8 125.428 51.92 127.628 52.84L131.988 54.6C135.348 55.92 138.068 58.16 138.068 62.44C138.068 67.64 134.388 70.56 128.348 70.56ZM159.247 42H163.127V59.24C163.127 66.88 160.647 70.56 153.727 70.56C146.607 70.56 143.967 66.76 143.967 59.24V42H148.967V59.8C148.967 64.48 150.567 66.72 154.127 66.72C157.807 66.72 159.247 64.4 159.247 59.8V42ZM170.694 70V42H179.534C186.654 42 189.254 45.76 189.254 50.2C189.254 54.76 186.654 58.6 179.534 58.6H175.574V70H170.694ZM175.574 55.12H179.054C182.934 55.12 184.094 53.04 184.094 50.24C184.094 47.52 182.934 45.52 179.054 45.52H175.574V55.12ZM199.403 66.44H210.562V70H194.523V42H210.323V45.56H199.403V53.76H209.363V57.28H199.403V66.44ZM235.23 64.08C235.83 67.28 236.11 68.48 236.67 70H231.35C230.95 68.76 230.71 67.04 230.31 64.68C229.47 59.44 228.31 58 225.07 58H221.59V70H216.71V42H226.75C232.11 42 235.27 44.56 235.27 49.24C235.27 53.6 232.47 56.12 227.79 56.12H226.51V56.4L227.87 56.48C231.59 56.68 233.91 56.96 235.23 64.08ZM221.59 54.52H225.71C228.59 54.52 230.19 52.96 230.19 49.96C230.19 46.92 228.55 45.52 225.71 45.52H221.59V54.52ZM260.805 42C268.845 42 272.805 46.76 272.805 56C272.805 65.32 268.845 70 260.805 70H252.765V42H260.805ZM260.605 66.48C265.965 66.48 267.645 62.72 267.645 56C267.645 49.32 265.965 45.56 260.605 45.56H257.645V66.48H260.605ZM284.168 66.44H295.328V70H279.288V42H295.088V45.56H284.168V53.76H294.128V57.28H284.168V66.44ZM309.325 70.56C303.045 70.56 299.325 67.44 299.205 61.88L303.805 60.68C304.005 64.6 305.805 66.92 309.405 66.92C312.125 66.92 314.005 65.64 314.005 63C314.005 60.96 312.885 59.68 310.725 58.84L305.925 56.92C302.565 55.6 300.165 53.24 300.165 49.08C300.165 44.12 303.845 41.44 309.485 41.44C314.845 41.44 318.645 43.92 318.845 49.08L314.285 50.2C314.045 46.52 312.205 45.12 309.525 45.08C306.965 45.04 305.165 46.16 305.165 48.6C305.165 50.8 306.405 51.92 308.605 52.84L312.965 54.6C316.325 55.92 319.045 58.16 319.045 62.44C319.045 67.64 315.365 70.56 309.325 70.56ZM325.304 42H330.184V70H325.304V42ZM352.476 50.8C352.236 47.2 350.596 45.2 347.756 45.2C343.516 45.2 341.876 48.64 341.876 55.96C341.876 63.48 343.636 66.76 347.716 66.76C350.676 66.76 353.076 64.96 353.076 59.52V58.76H347.276V55.36H357.556V70H353.756V67.24C353.756 65.48 353.836 63.76 354.116 61.8H353.796C353.156 67.8 350.876 70.56 346.276 70.56C340.036 70.56 336.716 65.68 336.716 56.12C336.716 46.44 340.556 41.44 347.636 41.44C352.876 41.44 356.796 43.96 357.316 49.76L352.476 50.8ZM365.03 70V42H371.39L378.99 59.44C379.75 61.36 380.59 63.72 381.15 66.68H381.43C380.99 63.92 380.87 62 380.87 60V42H384.79V70H378.43L370.83 52.64C370.11 50.76 369.19 48.32 368.63 45.4H368.35C368.79 48.16 368.95 50.12 368.95 52.08V70H365.03ZM397.606 66.44H408.766V70H392.726V42H408.526V45.56H397.606V53.76H407.566V57.28H397.606V66.44ZM433.433 64.08C434.033 67.28 434.313 68.48 434.873 70H429.553C429.153 68.76 428.913 67.04 428.513 64.68C427.673 59.44 426.513 58 423.273 58H419.793V70H414.913V42H424.953C430.313 42 433.473 44.56 433.473 49.24C433.473 53.6 430.673 56.12 425.993 56.12H424.713V56.4L426.073 56.48C429.793 56.68 432.113 56.96 433.433 64.08ZM419.793 54.52H423.913C426.793 54.52 428.393 52.96 428.393 49.96C428.393 46.92 426.753 45.52 423.913 45.52H419.793V54.52Z" fill="black"/>
<rect x="477" y="56" width="11.3137" height="11.3137" rx="1" transform="rotate(-45 477 56)" fill="black"/>
</g>
<rect x="20.5" y="16.5" width="512" height="79" rx="3.5" stroke="white"/>
</g>
<defs>
<filter id="filter0_d_908_22272" x="0" y="0" width="553" height="120" filterUnits="userSpaceOnUse" color-interpolation-filters="sRGB">
<feFlood flood-opacity="0" result="BackgroundImageFix"/>
<feColorMatrix in="SourceAlpha" type="matrix" values="0 0 0 0 0 0 0 0 0 0 0 0 0 0 0 0 0 0 127 0" result="hardAlpha"/>
<feOffset dy="4"/>
<feGaussianBlur stdDeviation="10"/>
<feColorMatrix type="matrix" values="0 0 0 0 0.329412 0 0 0 0 0.262745 0 0 0 0 0.223529 0 0 0 0.4 0"/>
<feBlend mode="multiply" in2="BackgroundImageFix" result="effect1_dropShadow_908_22272"/>
<feBlend mode="normal" in="SourceGraphic" in2="effect1_dropShadow_908_22272" result="shape"/>
</filter>
<filter id="filter1_d_908_22272" x="-201.624" y="-272.2" width="1038" height="683" filterUnits="userSpaceOnUse" color-interpolation-filters="sRGB">
<feFlood flood-opacity="0" result="BackgroundImageFix"/>
<feColorMatrix in="SourceAlpha" type="matrix" values="0 0 0 0 0 0 0 0 0 0 0 0 0 0 0 0 0 0 127 0" result="hardAlpha"/>
<feOffset dy="4"/>
<feGaussianBlur stdDeviation="2"/>
<feComposite in2="hardAlpha" operator="out"/>
<feColorMatrix type="matrix" values="0 0 0 0 0 0 0 0 0 0 0 0 0 0 0 0 0 0 0.25 0"/>
<feBlend mode="normal" in2="BackgroundImageFix" result="effect1_dropShadow_908_22272"/>
<feBlend mode="normal" in="SourceGraphic" in2="effect1_dropShadow_908_22272" result="shape"/>
</filter>
<linearGradient id="paint0_linear_908_22272" x1="-188.919" y1="-254.892" x2="910.337" y2="-75.8515" gradientUnits="userSpaceOnUse">
<stop stop-color="#E1E6CD"/>
<stop offset="0.07485" stop-color="#E4CAD5"/>
<stop offset="0.144877" stop-color="#D9CAE0"/>
<stop offset="0.210713" stop-color="#CADAE4"/>
<stop offset="0.286725" stop-color="#D6EAD8"/>
<stop offset="0.345196" stop-color="#DCE7C6"/>
<stop offset="0.40625" stop-color="#E9EED8"/>
<stop offset="0.461559" stop-color="#F0E6DB"/>
<stop offset="0.535237" stop-color="#E7D9EE"/>
<stop offset="0.606791" stop-color="#EFE3F2"/>
<stop offset="0.684534" stop-color="#E5E8F4"/>
<stop offset="0.775289" stop-color="#E7F6EE"/>
<stop offset="0.838559" stop-color="#F0F2E2"/>
<stop offset="0.907567" stop-color="#F3E4E1"/>
<stop offset="0.979976" stop-color="#F0E3EE"/>
</linearGradient>
<clipPath id="clip0_908_22272">
<rect x="20" y="16" width="513" height="80" rx="4" fill="white"/>
</clipPath>
</defs>
</svg>
