<svg width="543" height="483" viewBox="0 0 543 483" fill="none" xmlns="http://www.w3.org/2000/svg">
<path d="M86.366 262.386C86.537 266.661 89.6575 270.874 90.4013 275.337C90.9239 278.473 91.4336 281.121 91.4336 284.346C91.4336 290.107 89.6658 298.387 93.9674 302.927C99.1042 308.349 104.929 310.87 112.549 312.875C117.275 314.119 121.85 313.907 126.719 313.907C133.065 313.907 139.753 314.519 146.052 313.72C155.579 312.51 174.307 306.783 182.463 314.94C189.68 322.156 196.82 329.058 200.388 338.87C204.678 350.668 214.138 358.764 220.236 369.604C226.148 380.115 233.432 389.379 238.771 400.057C240.93 404.377 243.184 408.72 245.152 413.149C246.694 416.619 249.331 419.496 250.173 423.284C250.857 426.365 251.064 429.173 251.064 432.574C251.064 435.532 252.753 439.048 252.753 442.287" stroke="white" stroke-width="3.53764" stroke-linecap="round"/>
<path d="M82.9857 219.314C82.9857 213.243 85.5195 207.301 85.5195 201.155C85.5195 196.962 83.1962 194.178 82.1411 190.222C81.4205 187.519 78.7627 184.474 78.7627 181.729C78.7627 179.189 79.5986 178.246 82.1411 177.928C84.254 177.664 87.4887 174.27 88.898 172.86C91.5164 170.242 94.1533 167.898 96.4994 165.259C98.4197 163.099 98.4247 160.682 99.8779 158.502" stroke="white" stroke-width="3.53764" stroke-linecap="round"/>
<path d="M305.118 144.991C305.465 147.775 316.694 141.613 318.631 141.613C322.081 141.613 326.596 140.577 328.579 144.147C331.046 148.588 332.99 151.064 332.99 156.394C332.99 161.539 332.99 166.685 332.99 171.831C332.99 183.896 328.394 195.797 319.851 204.583C314.947 209.627 310.006 214.377 304.273 218.472C301.955 220.128 294.138 223.645 294.138 218.472" stroke="white" stroke-width="3.53764" stroke-linecap="round"/>
<path d="M288.228 152.588C288.894 179.922 308.62 212.555 338.904 212.555" stroke="white" stroke-width="3.53764" stroke-linecap="round"/>
<path d="M237.549 187.22C237.549 204.433 242.937 222.208 250.594 237.521C256.373 249.08 269.937 249.517 281.469 250.565" stroke="white" stroke-width="3.53764" stroke-linecap="round"/>
<path d="M407.315 231.141C416.902 242.241 432.432 250.459 446.355 254.414C459.192 258.061 473.069 258.974 482.861 269.054C489.851 276.25 489.499 283.381 483.283 290.685C477.307 297.707 470.988 299.554 462.215 299.554" stroke="white" stroke-width="3.53764" stroke-linecap="round"/>
<path d="M433.5 258.168C444.139 259.41 476.963 264.048 469.63 282.381C466.828 289.387 462.826 297.099 455.46 299.554" stroke="white" stroke-width="3.53764" stroke-linecap="round"/>
<path d="M422.521 267.458C422.521 270.424 423.107 272.82 424.491 275.482C431.03 288.057 439.741 301.103 443.12 314.991C445.368 324.236 433.222 323.203 426.744 323.203" stroke="white" stroke-width="3.53764" stroke-linecap="round"/>
<path d="M411.541 220.162C415.936 215.279 418.968 209.119 422.521 203.645C426.648 197.287 431.83 191.1 435.143 184.266C441.711 170.721 445.566 159.046 445.325 143.866C445.148 132.677 436.303 123.877 429.7 115.806C425.965 111.242 424.21 104.33 424.21 98.5388" stroke="white" stroke-width="3.53764" stroke-linecap="round"/>
<path d="M327.078 321.514C344.254 330.644 361.957 339.191 381.883 338.219C388.287 337.906 401.045 335.343 404.782 329.116" stroke="white" stroke-width="3.53764" stroke-linecap="round"/>
<path d="M343.126 145.833C343.503 147.526 346.583 149.29 347.772 150.478C352.276 154.982 356.84 159.016 362.083 162.678C370.081 168.264 377.346 175.02 385.357 180.462C393.517 186.005 405.427 193.975 415.763 193.975" stroke="white" stroke-width="3.53764" stroke-linecap="round"/>
<path d="M244.307 481.138C243.871 478.743 240.692 471.659 238.817 470.158C237.741 469.298 238.443 467.858 239.427 467.437C249.246 463.228 257.698 452.501 265.046 445.196C277.062 433.251 289.363 421.27 300.191 408.221C309.563 396.927 317.647 384.89 327.876 374.342C331.71 370.389 341.436 365.042 341.436 358.67" stroke="white" stroke-width="3.53764" stroke-linecap="round"/>
<path d="M357.484 377.256C357.52 380.458 357.985 412.186 363.396 411.885C364.417 411.829 365.146 411.057 366.024 410.618C369.776 408.742 374.144 407.758 378.13 406.536C386.356 404.014 394.188 400.458 402.248 397.527" stroke="white" stroke-width="3.53764" stroke-linecap="round"/>
<path d="M392.114 367.119C397.603 371.552 403.53 374.958 409.569 378.568C412.064 380.059 418.566 381.963 419.939 384.48C424.078 392.069 418.682 399.346 427.352 405.126C433.21 409.031 440.023 411.158 446.544 413.619C453.904 416.396 460.124 421.372 465.688 426.804C475.439 436.323 486.379 444.492 496 454.113" stroke="white" stroke-width="3.53764" stroke-linecap="round"/>
<path d="M209.678 479.457C205.595 479.457 204.611 469.587 204.611 466.694C204.611 461.638 205.455 456.464 205.455 451.585C205.455 446.662 212.764 442.469 216.06 439.479C222.441 433.692 228.465 427.132 233.515 420.147C234.917 418.208 237.675 415.737 238.395 413.578" stroke="white" stroke-width="3.53764" stroke-linecap="round"/>
<path d="M171.672 25.0561C166.963 25.0561 180.698 22.3395 185.092 20.6453C192.992 17.5986 201.24 14.0332 209.726 13.1846C213.4 12.8172 216.379 10.6977 220.237 10.6977C227.844 10.6977 235.566 8.82762 243.182 8.35161C257.512 7.45597 271.939 7.1892 286.069 4.36319C298.625 1.8519 313.609 1.10706 326.235 3.28397C348.742 7.1646 370.676 20.6661 384.325 39.039C389.192 45.5905 392.668 53.4539 398.824 58.8403C403.729 63.1323 407.096 70.3339 410.695 75.7325" stroke="white" stroke-width="3.53764" stroke-linecap="round"/>
<path d="M107.479 65.594C101.948 68.4384 99.2271 71.0295 96.3584 76.48C91.7325 85.2692 87.6219 94.8867 84.1585 104.211C79.1609 117.666 75.4052 129.249 84.6747 141.609" stroke="white" stroke-width="3.53764" stroke-linecap="round"/>
<path d="M95.656 143.301C95.656 138.154 104.002 129.588 107.481 136.544" stroke="white" stroke-width="3.53764" stroke-linecap="round"/>
<path d="M97.3459 151.747C97.3459 145.043 87.545 131.028 84.7237 143.723C83.9333 147.28 81.293 150.293 80.5007 153.858C79.5929 157.944 79.6092 162.707 79.6092 166.95" stroke="white" stroke-width="3.53764" stroke-linecap="round"/>
<path d="M142.953 114.586C142.953 107.913 135.801 100.592 129.017 103.606C122.034 106.71 120.591 112.482 117.428 118.809C109.698 134.269 103.412 153.027 109.591 170.33C111.149 174.691 113.426 182.999 119.304 182.999C125.302 182.999 130.846 180.637 132.02 174.178C133.523 165.913 134.908 157.108 136.853 148.84C138.087 143.597 137.374 138.209 139.763 133.168C140.836 130.903 141.865 128.588 142.953 126.411" stroke="white" stroke-width="3.53764" stroke-linecap="round"/>
<path d="M305.119 139.922C290.488 139.922 276.277 137.052 261.951 134.291C238.33 129.739 216.05 127.253 192.083 127.253C182.101 127.253 172.335 125.564 162.381 125.564" stroke="white" stroke-width="3.53764" stroke-linecap="round"/>
<path d="M75.3857 122.185C72.1871 121.829 67.6263 117.91 65.0628 116.085C61.9605 113.877 58.4622 111.174 55.7721 108.483C51.1674 103.879 49.2667 97.0863 45.3083 92.2482C35.0319 79.6881 34 65.2642 34 49.5956C34 44.7639 34.3757 40.6322 35.6892 36.035C36.6039 32.8336 40.3831 26.1085 43.2907 24.3982C46.4528 22.5381 50.7479 21.3299 53.8483 23.7412C57.2284 26.3702 64.4463 25.6853 68.6289 27.7766C73.4177 30.171 79.8242 33.0356 83.1749 37.2549C87.1536 42.2652 93.0886 47.7055 99.0347 50.0179C120.703 58.4446 141.849 66.4116 164.539 71.9307C183.026 76.4276 202.168 78.9046 220.846 82.3006C227.304 83.4748 233.929 83.3329 240.506 83.3329C243.538 83.3329 247.265 85.0221 250.219 85.0221" stroke="white" stroke-width="3.53764" stroke-linecap="round"/>
<path d="M158.156 30.9666C146.52 30.9666 134.883 30.9666 123.246 30.9666C115.17 30.9666 105.301 32.5314 97.4385 30.3566C88.2968 27.828 79.2133 21.6759 69.4727 21.6759" stroke="white" stroke-width="3.53764" stroke-linecap="round"/>
</svg>
