<svg width="40" height="40" fill="none" xmlns="http://www.w3.org/2000/svg"><path d="M13.527 16.226c-2.462-2.465-6.94-7.706-4.61-11.705.624-1.073 1.76-1.494 2.928-1.494 3.186 0 3.474 1.74 4.394 4.373.117.334 1.228 4.46 1.681 3.666.78-1.368.597-2.971 1.22-4.345.733-1.614 4.638-4.592 4.638-1.25 0 2.116-.28 3.192-.976 5.106-.288.794-1.619 2.677.027 1.956 1.092-.479 12.368-4.137 11.661-.95-.234 1.055-1.257 2.64-2.196 3.177-.759.434-2.736 1.466-1.926 1.466 2.603 0 8.264 7.238 4.42 8.338-1.915.548-4.413 1.908-6.237.081-.876-.877 1.581-.877.705 0-1.369 1.371-3.614 1.771-5.098 3.205-1.604 1.549-7.214 7.343-7.214 1.955 0-.962 1.59-3.81 2.82-2.227.676.87-4.335.881-4.664.87-2.966-.107-7.62-1.495-7.43-4.889.218-3.953 6.298 1.27 1.355-.38-2.917-.974-6.358-5.028-4.665-8.42 1.536-3.075 4.938.327 6.238.978" stroke="#544339" stroke-width="1.125" stroke-linecap="round"/><path d="M22.387 17.637c-1.08 0-1.823.694-1.823 1.822 0 .666.779.607 1.294.607.74 0 1.339.04 1.339-.888 0-.745.16-1.339-.81-1.339m4.554 8.909c.44 1.201 1.146 2.316 1.665 3.487.64 1.443.967 2.718.967 4.291 0 .772-.214 2.048-1.012 2.447" stroke="#544339" stroke-width="1.125" stroke-linecap="round"/></svg>