<svg width="40" height="40" fill="none" xmlns="http://www.w3.org/2000/svg"><path d="M7.312 16.211c-1.525-.042-3.257-.85-4.582-1.586m12.161-7.401a56.169 56.169 0 0 1-1.762-5.992m10.219 5.992c.76-1.685 1.696-3.107 2.995-4.406m4.759 13.394c2.085-1.073 4.086-2.308 6.167-3.349M18.942 38.416c0-1.47.235-3.135-1.058-4.151-.84-.66-1.77-2.035-2.369-2.908-.959-1.395-2.19-2.53-3.23-3.867-1.102-1.415-2.56-3.112-3.212-4.797-.284-.736-.485-2.252.617-2.252.968 0 1.443.416 2.027 1.146.566.708 1.039 1.382 1.723 2.066.576.576 1.174 1.223 1.625 1.899m.079.003c-1.078-1.437-2.604-5.725-3.22-7.403-.612-1.668-1.03-3.821-1.096-5.6-.065-.723.062-1.297.608-1.398.677-.126 1.254-.338 2.035 1.182 1.244 2.418 2.49 4.803 3.7 7.225.35.698 1.117 2.818 1.46 3.505" stroke="#544339" stroke-width="1.125" stroke-linecap="round"/><path d="M18.553 23.19c0-1.849-.673-3.733-.98-5.569-.238-1.43-.703-2.96-.743-4.405-.022-.77 0-3.525 1.808-3.075.675.225 1.125 1.238 1.35 2.137.562 1.8.773 2.687 1.11 3.933.41 1.519.904 3.048 1.332 4.543.167.585.711 1.487.711 2.1m.03.054c0-3.086-.444-6.681 1.145-9.506.322-.573 1.41-2.386 2.534-2.136 1.238.274.675 2.475.461 3.193-.348 1.532-.482 2.957-.832 4.396-.39 1.607-.842 3.468-.842 5.11M18.59 38.768c2.066 0 3.412-.24 4.934-1.762m2.314-12.988c0-1.556 1.234-2.11 2.154-3.133.3-.333 2.202-1.575 2.389-1.057.546 1.518-1.15 3.431-1.939 4.543-1.646 2.316-2.328 6.972-.137 9.163" stroke="#544339" stroke-width="1.125" stroke-linecap="round"/></svg>