<svg width="462" height="696" viewBox="0 0 462 696" fill="none" xmlns="http://www.w3.org/2000/svg">
<path d="M126.336 333.185C133.804 296.661 140.273 259.367 154.286 224.634C161.856 205.869 172.719 189.962 185.484 174.419C200.333 156.339 220.879 134.82 246.391 144.236C261.581 149.843 274.193 160.663 289.974 165.013C303.298 168.684 318.131 167.784 331.797 167.246C342.59 166.821 353.343 165.964 363.672 162.644C368.861 160.976 375.644 157.594 381.268 159.26C388.137 161.295 375.952 182.7 374.974 184.841C364.307 208.213 352.926 230.346 329.97 243.786C309.021 256.052 284.701 257.93 261.551 263.344C243.036 267.675 223.64 272.984 206.937 282.361C186.387 293.898 174.81 310.551 162.88 329.937C153.721 344.821 142.557 345.396 126.336 344.148" stroke="white" stroke-width="5" stroke-linecap="round"/>
<path d="M111.718 329.531C104.618 309.868 97.5775 290.188 91.2805 270.247C81.5902 239.561 76.4124 208.347 67.9326 177.465C59.9178 148.277 47.244 120.658 39.5767 91.3144C37.1297 81.9491 34.9791 72.5102 32.7416 63.0939C31.4552 57.6803 28.4816 50.3281 30.7113 44.754C33.6122 37.5016 43.4833 38.0998 49.6603 39.2046C65.7094 42.0752 78.9015 52.0681 90.4684 63.0262C124.241 95.021 134.438 143.534 126.675 188.766C124.1 203.768 117.934 217.359 119.569 232.891C120.245 239.316 122.13 245.643 122.411 252.11C122.839 261.949 119.713 271.287 117.809 280.805" stroke="white" stroke-width="5" stroke-linecap="round"/>
<path d="M123.9 334.403C120.253 366.784 114.361 400.657 119.569 433.209C121.744 446.803 126.859 464.095 138.247 473.205C146.786 480.035 158.779 483.12 169.378 484.642C177.177 485.762 179.569 484.176 183.59 478.145" stroke="white" stroke-width="5" stroke-linecap="round"/>
<path d="M178.718 336.84C179.242 376.127 181.91 415.438 181.425 454.73C181.274 466.973 179.049 475.981 174.59 487.011C174.466 487.317 171.959 495.614 174.116 491.139C179.274 480.441 181.009 468.111 185.215 457.031C193.824 434.349 203.968 410.855 229.271 405.056C238.693 402.897 255.217 403.519 263.109 397.409C270.368 391.789 267.029 376.354 269.877 368.444C272.64 360.767 279.536 355.947 285.915 351.458C293.878 345.855 300.227 339.507 306.353 331.967C314.782 321.594 310.394 340.781 309.669 344.893C304.929 371.813 293.868 397.176 284.359 422.652C280.181 433.844 276.703 445.485 267.643 453.782C260.239 460.564 251.798 468.35 242.874 473.002C212.077 489.056 171.557 487.743 145.828 513.472" stroke="white" stroke-width="5" stroke-linecap="round"/>
<path d="M255.461 459.873C260.561 442.771 267.5 427.186 275.696 411.282C282.195 398.672 289.82 378.398 304.187 372.166C324.607 363.31 345.899 363.243 367.666 362.286C382.353 361.64 386.784 354.163 396.766 345.232C404.421 338.383 416.051 351.396 418.152 358.361C422.547 372.934 420.636 393.966 411.317 406.207C396.94 425.089 369.262 433.117 347.973 441.263C320.004 451.963 290.435 442.503 261.552 441.601" stroke="white" stroke-width="5" stroke-linecap="round"/>
<path d="M201.861 491.545C207.612 510.208 217.132 517.698 235.834 525.179C262.509 535.849 285.323 534.48 311.563 524.841C322.646 520.769 332.999 516.265 344.994 517.464C356.169 518.582 366.855 522.277 378.02 523.42C404.16 526.095 426.867 518.14 443.867 497.974C450.103 490.577 458.94 479.733 458.553 469.28C458.143 458.211 444.334 454.535 435.746 452.428C413.826 447.052 393.761 447.906 376.598 463.256C367.932 471.008 358.458 483.905 345.332 482.747C339.022 482.19 333.289 479.177 327.737 476.385C315.847 470.407 303.918 464.335 291.192 460.279C265.373 452.049 237.02 454.919 210.388 456.218" stroke="white" stroke-width="5" stroke-linecap="round"/>
<path d="M134.863 457.437C113.984 441.671 91.0527 427.609 73.8204 407.628C65.4988 397.979 57.4049 387.713 43.6373 386.378C15.36 383.634 19.4262 444.312 24.8914 458.925C31.6316 476.948 52.3958 490.644 69.9629 496.417C86.2586 501.773 104.343 501.6 121.328 501.222C144.461 500.708 169.056 498.127 190.898 490.327" stroke="white" stroke-width="5" stroke-linecap="round"/>
<path d="M166.535 493.981C153.591 518.431 136.436 539.635 120.787 562.333C103.837 586.917 102.508 612.708 101.973 641.919C101.737 654.777 101.369 667.521 100.822 680.359C100.729 682.546 100.138 684.314 101.973 685.231" stroke="white" stroke-width="5" stroke-linecap="round"/>
<path d="M105.629 682.795C111.506 639.467 122.126 599.535 145.963 562.198C153.97 549.657 161.726 539.489 176.755 540.88C197.584 542.809 208.807 535.2 222.571 520.781" stroke="white" stroke-width="5" stroke-linecap="round"/>
<path d="M105.629 684.013C121.984 662.333 140.035 641.093 161.122 623.85C172.49 614.554 191.036 602.635 206.803 607.337C227.615 613.544 244.08 630.198 260.334 643.679C275.924 656.608 294.101 664.362 313.391 670.072C342.968 678.827 373.397 686.224 403.941 690.645C407.691 691.188 420.218 695.309 420.995 689.292C421.631 684.357 421.13 679.024 421.13 674.065C421.13 668.842 421.534 663.141 420.183 658.026C418.393 651.252 410.47 644.28 406.242 638.941C393.104 622.353 376.732 609.501 357.786 600.028C348.001 595.136 337.456 593.729 326.656 592.652C302.607 590.253 278.51 589.565 254.379 588.726C228.609 587.831 204.244 590.389 178.718 593.87" stroke="white" stroke-width="5" stroke-linecap="round"/>
<path d="M184.807 593.869C169.304 598.87 155.785 606.726 142.037 615.525C126.759 625.303 110.365 635.94 98.9953 650.446C93.5775 657.358 91.2585 665.652 88.844 673.861C87.4718 678.527 87.9107 664.171 87.0845 659.379C85.9261 652.661 84.3727 646.903 81.8058 640.836C77.3664 630.343 73.7744 620.565 67.1203 611.059C59.1772 599.712 50.2605 589.144 42.4189 577.695C32.4068 563.077 19.2103 555.868 3.30273 548.798" stroke="white" stroke-width="5" stroke-linecap="round"/>
</svg>
