<svg width="40" height="40" fill="none" xmlns="http://www.w3.org/2000/svg"><path d="M16.633 19.114c0 1.47.913 1.503 2.357 1.366 2.577-.245.667-2.184-.375-2.952-1.433-1.055-3.428-1.641-4.549.11-.908 1.42-.875 3.337.584 4.296 1.774 1.165 6.605 3.175 8.018.495 1.642-3.114.895-8.68-2.225-10.76-3.25-2.168-7.196 1.677-8.767 4.23a45.554 45.554 0 0 0-4.097 8.634c-.326.929-.884 2.622.044 3.414 1.543 1.317 4.187 1.71 6.124 1.873 4.437.373 9.537.939 13.745-.837 4.957-2.093 10.357-9.003 5.86-14.076-1.238-1.396-2.957-2.176-4.67-2.82-3.116-1.17-6.407-2.013-9.737-2.202-4.57-.26-8.84-.232-11.916 3.546-1.54 1.89-2.12 4.35-2.06 6.752.077 3.102 1.991 4.589 4.79 5.529 3.509 1.177 7.274 1.31 10.794.077 2.223-.779 2.392-3 2.291-5.089-.1-2.073-.386-4.156-2.544-4.923-.637-.226-2.692-.231-2.015-.231 2.521 0 4.992.418 7.511-.044.894-.164 1.62-.353 2.533-.353" stroke="#FFFFFF" stroke-width="1.266" stroke-linecap="round"/></svg>