<svg width="40" height="40" fill="none" xmlns="http://www.w3.org/2000/svg"><path d="M7.24 13.817V5.766c0-.037-.017-.942.09-.87.294.195.717.223 1.073.261 1.98.214 4.059.094 6.044.04 3.243-.089 6.469-.47 9.713-.55 1.49-.036 2.992.057 4.48-.039 1.23-.08 2.282-.448 3.441-.68" stroke="#FFFFFF" stroke-width=".938" stroke-linecap="round"/><path d="M32.08 3.928c.375 7.675.812 15.37.647 23.056-.058 2.736-.131 5.472-.176 8.209-.013.791-.152.922-.903.87-5.843-.403-11.673-.347-17.536-.347-1.15 0-2.34-.118-3.46-.118-.449 0-1.884-.038-1.884-.53 0-1.03.058-2.082-.059-3.106-.074-.658.171-2.724-.53-3.075" stroke="#FFFFFF" stroke-width=".938" stroke-linecap="round"/><path d="M7.475 14.172c1.371 0 2.472.025 2.472 1.622 0 .147.089.71-.026.824-.238.238-.8.144-1.099.144h-.687c.27 0 .477.118.752.118.444 0 1.161.44 1.387.824.365.62.148 1.182-.419 1.53-.21.13-1.836.172-1.615.295.288.16.794.211 1.125.294.398.1.661.416.935.706.46.487.057 1.401-.47 1.59-.397.142-1.635.172-1.23.288.52.149 1.477-.09 1.792.477.656 1.182-.172 2.237-1.465 2.237h-.04c.376 0 1.025.096 1.348.301.617.393.563.777.536 1.491-.025.683-.692 1.622-1.413 1.622-.334 0-1.103-.065-1.295-.353" stroke="#FFFFFF" stroke-width=".938" stroke-linecap="round"/><path fill-rule="evenodd" clip-rule="evenodd" d="M15.621 12.777c.048-.16.228-.4.592-.684.347-.27.802-.534 1.29-.755.489-.22.994-.391 1.436-.485.46-.098.783-.096.946-.044.185.06.348.142.514.239.053.03.119.07.19.114.113.07.238.146.343.204.415.228.899.395 1.596.27 1.774-.315 3.506-.312 5.345-.31h.5a.469.469 0 1 0 0-.937h-.51c-1.825-.003-3.64-.006-5.499.325-.433.077-.699-.015-.98-.17a5.59 5.59 0 0 1-.265-.157c-.071-.043-.148-.091-.248-.15a3.492 3.492 0 0 0-.7-.32c-.405-.13-.928-.087-1.427.019a8.212 8.212 0 0 0-1.627.548 7.45 7.45 0 0 0-1.48.87c-.405.314-.78.706-.914 1.153a.469.469 0 1 0 .898.27zm2.162 4.354c.828-.207 1.753-.183 2.344.25.41.301.922.386 1.35.427.16.015.324.025.478.034h.001l.164.01c.204.014.383.03.54.058.391.072.687-.08.89-.224a3.91 3.91 0 0 0 .205-.16l.042-.034c.071-.058.12-.094.165-.119.287-.159.557-.159 1.034-.159h2.841a.469.469 0 0 0 0-.937h-2.906c-.418-.002-.919-.004-1.424.277-.119.066-.22.145-.299.208a8.507 8.507 0 0 0-.063.051c-.053.043-.093.076-.138.108-.104.074-.141.074-.18.067a5.773 5.773 0 0 0-.646-.071l-.185-.012c-.147-.009-.288-.017-.43-.03-.405-.04-.693-.11-.884-.25-.925-.678-2.194-.637-3.126-.404l-.004.001c-.308.077-.925.231-1.488.465a3.726 3.726 0 0 0-.81.441c-.23.174-.472.427-.542.774a.469.469 0 0 0 .92.184c.003-.017.032-.092.187-.21.148-.111.357-.22.604-.323.492-.204 1.048-.344 1.36-.422zm7.49 6.172a7.877 7.877 0 0 1-1.126.397c-.666.172-1.31.155-1.908.099-.222-.021-.43-.046-.632-.07a11.372 11.372 0 0 0-1.068-.094c-.784-.02-1.554.065-2.353.16l-.136.016c-.748.089-1.525.181-2.316.181a.469.469 0 1 1 0-.937c.734 0 1.46-.086 2.22-.177l.121-.014c.796-.094 1.628-.188 2.488-.166.402.01.822.06 1.216.107.19.022.375.044.548.06.559.053 1.075.06 1.585-.073.364-.094.684-.22.994-.352l.203-.087c.238-.104.484-.21.724-.292.32-.108.662-.186 1.042-.174.382.012.774.113 1.2.325a.469.469 0 0 1-.42.839c-.32-.16-.581-.22-.81-.227a1.98 1.98 0 0 0-.71.125c-.2.068-.399.154-.629.253-.074.033-.151.066-.233.1zm-.758 5.684c.566 0 1.066-.222 1.456-.396h.002c.428-.191.717-.317 1-.317a.469.469 0 0 0 0-.938c-.493 0-.954.207-1.318.37l-.063.028c-.411.183-.737.316-1.077.316-1.196 0-2.277-.033-3.421-.25-.876-.165-1.815-.142-2.676-.12-.28.006-.552.013-.81.013-.111 0-.242-.01-.407-.02l-.016-.002a8.026 8.026 0 0 0-.544-.025c-.357-.001-.836.038-1.2.328a.469.469 0 1 0 .586.732c.093-.074.28-.124.612-.123.154 0 .313.011.48.023l.03.002c.15.011.313.023.458.023.312 0 .617-.008.916-.015.835-.02 1.628-.04 2.396.106 1.234.233 2.387.265 3.596.265z" fill="#FFFFFF"/></svg>