<svg width="16" height="16" fill="none" xmlns="http://www.w3.org/2000/svg"><path d="M13.98 4.135l-5.5-3.01a.996.996 0 0 0-.96 0l-5.5 3.011a1 1 0 0 0-.52.875v5.978a1 1 0 0 0 .52.875l5.5 3.01a.992.992 0 0 0 .96 0l5.5-3.01a1 1 0 0 0 .52-.875V5.011a1 1 0 0 0-.52-.876zM10.5 9.5v3.13l-2 1.096v-5.43l5-2.737v2l-2.74 1.5a.5.5 0 0 0-.26.441zm-5.26-.437l-2.74-1.5v-2l5 2.737v5.43l-2-1.1V9.5a.5.5 0 0 0-.26-.437zm-.044-5.526L7.76 4.94a.5.5 0 0 0 .48 0L10.8 3.537l2.155 1.18L8 7.43 3.041 4.715l2.155-1.178zM8 2l1.762.965L8 3.931l-1.763-.965L8 2zM2.5 8.701l2 1.095v2.287l-2-1.094V8.701zm9 3.382V9.796l2-1.095v2.288l-2 1.094z" fill="url(#paint0_linear_1012_49234)"/><defs><linearGradient id="paint0_linear_1012_49234" x1="1.5" y1="4" x2="15" y2="12" gradientUnits="userSpaceOnUse"><stop stop-color="#EBE9FE"/><stop offset=".503" stop-color="#FBB1BC"/><stop offset="1" stop-color="#795CF6"/></linearGradient></defs></svg>