<svg width="20" height="20" viewBox="0 0 20 20" fill="none" xmlns="http://www.w3.org/2000/svg">
<path d="M16.2887 9.41343C16.2016 9.50083 16.0981 9.57018 15.9842 9.6175C15.8702 9.66482 15.7481 9.68917 15.6247 9.68917C15.5013 9.68917 15.3791 9.66482 15.2652 9.6175C15.1512 9.57018 15.0477 9.50083 14.9606 9.41343L10.938 5.39078V16.8752C10.938 17.1238 10.8392 17.3622 10.6634 17.5381C10.4876 17.7139 10.2491 17.8127 10.0005 17.8127C9.75181 17.8127 9.51336 17.7139 9.33754 17.5381C9.16173 17.3622 9.06295 17.1238 9.06295 16.8752V5.39078L5.03874 9.41343C4.86262 9.58956 4.62375 9.6885 4.37467 9.6885C4.1256 9.6885 3.88673 9.58956 3.71061 9.41343C3.53449 9.23731 3.43555 8.99844 3.43555 8.74937C3.43555 8.5003 3.53449 8.26143 3.71061 8.08531L9.33561 2.46031C9.42271 2.37291 9.5262 2.30356 9.64016 2.25625C9.75411 2.20893 9.87629 2.18457 9.99967 2.18457C10.1231 2.18457 10.2452 2.20893 10.3592 2.25625C10.4731 2.30356 10.5766 2.37291 10.6637 2.46031L16.2887 8.08531C16.3761 8.17241 16.4455 8.2759 16.4928 8.38985C16.5401 8.50381 16.5645 8.62598 16.5645 8.74937C16.5645 8.87276 16.5401 8.99494 16.4928 9.10889C16.4455 9.22284 16.3761 9.32634 16.2887 9.41343Z" fill="white"/>
</svg>
